<svg width="150" height="55" viewBox="0 0 150 55" fill="none" xmlns="http://www.w3.org/2000/svg">
<rect width="149.443" height="53.6919" transform="translate(0.0585938 0.827637)" fill="#FFBF5F"/>
<path d="M25.0816 33.1455H26.5459L29.1313 23.8104H29.2229L31.8083 33.1455H33.2726L36.4759 21.4309H35.0344L32.5862 30.9719H32.4718L29.9779 21.4309H28.3763L25.8824 30.9719H25.768L23.3198 21.4309H21.8784L25.0816 33.1455ZM39.8278 33.3514C41.3607 33.3514 42.1616 32.5277 42.4361 31.9557H42.5048V33.1455H43.8547V27.3568C43.8547 24.5655 41.7268 24.2452 40.6057 24.2452C39.2787 24.2452 37.7686 24.7028 37.0822 26.3044L38.3635 26.762C38.6609 26.1213 39.3645 25.4349 40.6515 25.4349C41.8927 25.4349 42.5048 26.0927 42.5048 27.2196V27.2653C42.5048 27.9174 41.8412 27.8602 40.2396 28.0661C38.6094 28.2778 36.8305 28.6381 36.8305 30.6516C36.8305 32.3676 38.1575 33.3514 39.8278 33.3514ZM40.0337 32.1388C38.9583 32.1388 38.1804 31.6583 38.1804 30.7202C38.1804 29.6906 39.1185 29.3703 40.171 29.233C40.743 29.1644 42.276 29.0042 42.5048 28.7297V29.9652C42.5048 31.0634 41.6353 32.1388 40.0337 32.1388ZM46.3186 33.1455H47.6685V24.3596H46.3186V33.1455ZM47.005 22.8952C47.5312 22.8952 47.9659 22.4834 47.9659 21.98C47.9659 21.4767 47.5312 21.0648 47.005 21.0648C46.4787 21.0648 46.044 21.4767 46.044 21.98C46.044 22.4834 46.4787 22.8952 47.005 22.8952ZM53.962 24.3596H52.0858V22.2546H50.7359V24.3596H49.4088V25.5036H50.7359V30.9948C50.7359 32.5277 51.9714 33.2599 53.1154 33.2599C53.6188 33.2599 53.9391 33.1684 54.1221 33.0997L53.8476 31.8871C53.7332 31.91 53.5501 31.9557 53.2527 31.9557C52.6578 31.9557 52.0858 31.7727 52.0858 30.6287V25.5036H53.962V24.3596ZM58.006 31.5439H56.5417L56.473 32.1845C56.3072 33.7347 55.9811 35.2791 55.8324 36.0055H56.862C57.1366 35.2276 57.72 33.4658 57.9145 32.1617L58.006 31.5439ZM68.8583 24.3596H66.9822V22.2546H65.6322V24.3596H64.3052V25.5036H65.6322V30.9948C65.6322 32.5277 66.8678 33.2599 68.0118 33.2599C68.5151 33.2599 68.8354 33.1684 69.0185 33.0997L68.7439 31.8871C68.6295 31.91 68.4465 31.9557 68.149 31.9557C67.5542 31.9557 66.9822 31.7727 66.9822 30.6287V25.5036H68.8583V24.3596ZM72.4276 27.8602C72.4276 26.3272 73.4057 25.4578 74.7385 25.4578C76.0083 25.4578 76.7748 26.2586 76.7748 27.6543V33.1455H78.1247V27.5628C78.1247 25.3034 76.9235 24.2452 75.1275 24.2452C73.7432 24.2452 72.9539 24.8229 72.542 25.7324H72.4276V21.4309H71.0777V33.1455H72.4276V27.8602ZM83.1798 33.3514C84.7128 33.3514 85.5136 32.5277 85.7881 31.9557H85.8568V33.1455H87.2067V27.3568C87.2067 24.5655 85.0789 24.2452 83.9577 24.2452C82.6307 24.2452 81.1206 24.7028 80.4342 26.3044L81.7155 26.762C82.0129 26.1213 82.7165 25.4349 84.0035 25.4349C85.2447 25.4349 85.8568 26.0927 85.8568 27.2196V27.2653C85.8568 27.9174 85.1933 27.8602 83.5917 28.0661C81.9615 28.2778 80.1825 28.6381 80.1825 30.6516C80.1825 32.3676 81.5096 33.3514 83.1798 33.3514ZM83.3857 32.1388C82.3104 32.1388 81.5325 31.6583 81.5325 30.7202C81.5325 29.6906 82.4705 29.3703 83.523 29.233C84.095 29.1644 85.628 29.0042 85.8568 28.7297V29.9652C85.8568 31.0634 84.9873 32.1388 83.3857 32.1388ZM93.4916 24.3596H91.6154V22.2546H90.2655V24.3596H88.9385V25.5036H90.2655V30.9948C90.2655 32.5277 91.501 33.2599 92.645 33.2599C93.1484 33.2599 93.4687 33.1684 93.6517 33.0997L93.3772 31.8871C93.2628 31.91 93.0797 31.9557 92.7823 31.9557C92.1874 31.9557 91.6154 31.7727 91.6154 30.6287V25.5036H93.4916V24.3596ZM97.1681 21.4309H95.8868V22.4834C95.8868 23.33 95.475 24.0621 94.9945 24.7485L95.7267 25.3434C96.6419 24.6112 97.1681 23.3986 97.1681 22.4605V21.4309ZM103.932 26.3272C103.509 25.0803 102.559 24.2452 100.82 24.2452C98.9671 24.2452 97.5943 25.2976 97.5943 26.7848C97.5943 27.9975 98.315 28.8097 99.928 29.1873L101.392 29.5305C102.279 29.7364 102.697 30.1597 102.697 30.766C102.697 31.521 101.896 32.1388 100.637 32.1388C99.5334 32.1388 98.8412 31.664 98.601 30.7202L97.3197 31.0405C97.6343 32.5335 98.8641 33.3285 100.66 33.3285C102.702 33.3285 104.092 32.2131 104.092 30.6973C104.092 29.4733 103.326 28.7011 101.758 28.3178L100.454 27.9975C99.4132 27.7401 98.9442 27.3912 98.9442 26.7162C98.9442 25.9612 99.745 25.412 100.82 25.412C101.999 25.412 102.485 26.0641 102.719 26.6704L103.932 26.3272ZM110.655 33.1455H112.004V24.3596H110.655V33.1455ZM111.341 22.8952C111.867 22.8952 112.302 22.4834 112.302 21.98C112.302 21.4767 111.867 21.0648 111.341 21.0648C110.815 21.0648 110.38 21.4767 110.38 21.98C110.38 22.4834 110.815 22.8952 111.341 22.8952ZM118.298 24.3596H116.422V22.2546H115.072V24.3596H113.745V25.5036H115.072V30.9948C115.072 32.5277 116.307 33.2599 117.451 33.2599C117.955 33.2599 118.275 33.1684 118.458 33.0997L118.183 31.8871C118.069 31.91 117.886 31.9557 117.589 31.9557C116.994 31.9557 116.422 31.7727 116.422 30.6287V25.5036H118.298V24.3596ZM122.09 29.8508H123.463V29.7821C123.486 28.3636 123.852 27.7458 124.859 27.1166C125.865 26.5046 126.46 25.6237 126.46 24.3596C126.46 22.5749 125.156 21.2707 123.143 21.2707C121.289 21.2707 119.819 22.4147 119.734 24.3596H121.175C121.261 23.0096 122.205 22.4605 123.143 22.4605C124.218 22.4605 125.088 23.1698 125.088 24.2909C125.088 25.2004 124.567 25.8525 123.898 26.2586C122.777 26.9393 122.107 27.6028 122.09 29.7821V29.8508ZM122.822 33.237C123.389 33.237 123.852 32.7737 123.852 32.2074C123.852 31.6411 123.389 31.1778 122.822 31.1778C122.256 31.1778 121.793 31.6411 121.793 32.2074C121.793 32.7737 122.256 33.237 122.822 33.237Z" fill="#0B4022"/>
</svg>
