<svg width="226" height="54" viewBox="0 0 226 54" fill="none" xmlns="http://www.w3.org/2000/svg">
<rect width="225.506" height="53.6919" transform="translate(0.492188 0.106445)" fill="#0B4022"/>
<path d="M22.3806 20.7097L26.6134 27.5966V32.4243H28.032V27.5966L32.2648 20.7097H30.6403L27.3913 26.1781H27.254L24.0051 20.7097H22.3806ZM36.3575 32.6074C38.1421 32.6074 39.4463 31.715 39.8581 30.388L38.5539 30.0219C38.2107 30.9371 37.4157 31.3947 36.3575 31.3947C34.773 31.3947 33.6805 30.3708 33.6176 28.4889H39.9954V27.9169C39.9954 24.6451 38.0506 23.524 36.2202 23.524C33.8407 23.524 32.2619 25.4001 32.2619 28.1C32.2619 30.7998 33.8178 32.6074 36.3575 32.6074ZM33.6176 27.3221C33.7091 25.955 34.6758 24.7366 36.2202 24.7366C37.6845 24.7366 38.6226 25.8349 38.6226 27.3221H33.6176ZM42.0489 35.719H43.3988V31.0744H43.5132C43.8106 31.5549 44.3827 32.6074 46.0758 32.6074C48.2723 32.6074 49.8052 30.8456 49.8052 28.0542C49.8052 25.2857 48.2723 23.524 46.0529 23.524C44.3369 23.524 43.8106 24.5764 43.5132 25.034H43.353V23.6384H42.0489V35.719ZM43.3759 28.0313C43.3759 26.0637 44.2454 24.7366 45.8927 24.7366C47.6087 24.7366 48.4553 26.1781 48.4553 28.0313C48.4553 29.9075 47.5859 31.3947 45.8927 31.3947C44.2683 31.3947 43.3759 30.0219 43.3759 28.0313ZM53.8779 30.8227H52.4136L52.3449 31.4634C52.179 33.0135 51.853 34.5579 51.7043 35.2843H52.7339C53.0084 34.5064 53.5919 32.7446 53.7864 31.4405L53.8779 30.8227ZM64.7302 23.6384H62.854V21.5334H61.5041V23.6384H60.1771V24.7824H61.5041V30.2736C61.5041 31.8066 62.7396 32.5387 63.8836 32.5387C64.387 32.5387 64.7073 32.4472 64.8904 32.3786L64.6158 31.1659C64.5014 31.1888 64.3184 31.2346 64.0209 31.2346C63.426 31.2346 62.854 31.0515 62.854 29.9075V24.7824H64.7302V23.6384ZM66.7608 32.4243H68.1107V26.8645C68.1107 25.6747 69.0488 24.8052 70.3301 24.8052C70.6905 24.8052 71.0623 24.8739 71.1538 24.8968V23.524C70.9993 23.5125 70.6447 23.5011 70.4445 23.5011C69.392 23.5011 68.4768 24.096 68.1565 24.9654H68.065V23.6384H66.7608V32.4243ZM73.8908 35.719C75.1092 35.719 75.9672 35.0727 76.4763 33.7056L80.2057 23.6384H78.7414L76.3161 30.6397H76.2246L73.7993 23.6384H72.335L75.5839 32.4701L75.3323 33.1565C74.8403 34.495 74.234 34.6208 73.2502 34.3691L72.907 35.5589C73.0442 35.6275 73.4332 35.719 73.8908 35.719ZM90.0642 35.9021C92.1691 35.9021 93.8623 34.9411 93.8623 32.676V23.6384H92.5581V25.034H92.4208C92.1234 24.5764 91.5742 23.524 89.8582 23.524C87.6389 23.524 86.1059 25.2857 86.1059 27.9856C86.1059 30.7312 87.7075 32.287 89.8354 32.287C91.5514 32.287 92.1005 31.2803 92.3979 30.7998H92.5123V32.5845C92.5123 34.0488 91.4827 34.7123 90.0642 34.7123C88.4683 34.7123 87.9077 33.8715 87.5474 33.3853L86.472 34.1403C87.0211 35.0612 88.1022 35.9021 90.0642 35.9021ZM90.0184 31.0744C88.3253 31.0744 87.4558 29.7931 87.4558 27.9627C87.4558 26.1781 88.3024 24.7366 90.0184 24.7366C91.6658 24.7366 92.5352 26.0637 92.5352 27.9627C92.5352 29.9075 91.6429 31.0744 90.0184 31.0744ZM96.3333 32.4243H97.6832V23.6384H96.3333V32.4243ZM97.0197 22.174C97.546 22.174 97.9807 21.7622 97.9807 21.2588C97.9807 20.7555 97.546 20.3436 97.0197 20.3436C96.4935 20.3436 96.0587 20.7555 96.0587 21.2588C96.0587 21.7622 96.4935 22.174 97.0197 22.174ZM107.34 23.6384H105.876L103.45 30.6397H103.359L100.934 23.6384H99.4693L102.718 32.4243H104.091L107.34 23.6384ZM109.122 32.4243H110.472V23.6384H109.122V32.4243ZM109.808 22.174C110.334 22.174 110.769 21.7622 110.769 21.2588C110.769 20.7555 110.334 20.3436 109.808 20.3436C109.282 20.3436 108.847 20.7555 108.847 21.2588C108.847 21.7622 109.282 22.174 109.808 22.174ZM114.294 27.139C114.294 25.6061 115.244 24.7366 116.536 24.7366C117.789 24.7366 118.55 25.5546 118.55 26.9331V32.4243H119.9V26.8416C119.9 24.5993 118.704 23.524 116.925 23.524C115.598 23.524 114.775 24.1188 114.363 25.0112H114.248V23.6384H112.944V32.4243H114.294V27.139ZM125.913 35.9021C128.018 35.9021 129.711 34.9411 129.711 32.676V23.6384H128.407V25.034H128.27C127.972 24.5764 127.423 23.524 125.707 23.524C123.488 23.524 121.955 25.2857 121.955 27.9856C121.955 30.7312 123.556 32.287 125.684 32.287C127.4 32.287 127.949 31.2803 128.247 30.7998H128.361V32.5845C128.361 34.0488 127.332 34.7123 125.913 34.7123C124.317 34.7123 123.757 33.8715 123.396 33.3853L122.321 34.1403C122.87 35.0612 123.951 35.9021 125.913 35.9021ZM125.867 31.0744C124.174 31.0744 123.305 29.7931 123.305 27.9627C123.305 26.1781 124.151 24.7366 125.867 24.7366C127.515 24.7366 128.384 26.0637 128.384 27.9627C128.384 29.9075 127.492 31.0744 125.867 31.0744ZM136.712 32.4243H138.062V23.6384H136.712V32.4243ZM137.399 22.174C137.925 22.174 138.36 21.7622 138.36 21.2588C138.36 20.7555 137.925 20.3436 137.399 20.3436C136.873 20.3436 136.438 20.7555 136.438 21.2588C136.438 21.7622 136.873 22.174 137.399 22.174ZM144.356 23.6384H142.48V21.5334H141.13V23.6384H139.803V24.7824H141.13V30.2736C141.13 31.8066 142.365 32.5387 143.509 32.5387C144.013 32.5387 144.333 32.4472 144.516 32.3786L144.241 31.1659C144.127 31.1888 143.944 31.2346 143.646 31.2346C143.052 31.2346 142.48 31.0515 142.48 29.9075V24.7824H144.356V23.6384ZM153.502 32.6302C155.035 32.6302 155.836 31.8066 156.11 31.2346H156.179V32.4243H157.529V26.6357C157.529 23.8443 155.401 23.524 154.28 23.524C152.953 23.524 151.443 23.9816 150.756 25.5832L152.038 26.0408C152.335 25.4001 153.039 24.7137 154.326 24.7137C155.567 24.7137 156.179 25.3715 156.179 26.4984V26.5441C156.179 27.1962 155.516 27.139 153.914 27.3449C152.284 27.5566 150.505 27.9169 150.505 29.9304C150.505 31.6464 151.832 32.6302 153.502 32.6302ZM153.708 31.4176C152.633 31.4176 151.855 30.9371 151.855 29.999C151.855 28.9694 152.793 28.6491 153.845 28.5118C154.417 28.4432 155.95 28.283 156.179 28.0085V29.244C156.179 30.3422 155.31 31.4176 153.708 31.4176ZM170.746 25.6061C170.323 24.3591 169.374 23.524 167.635 23.524C165.782 23.524 164.409 24.5764 164.409 26.0637C164.409 27.2763 165.129 28.0885 166.742 28.4661L168.207 28.8093C169.093 29.0152 169.511 29.4385 169.511 30.0448C169.511 30.7998 168.71 31.4176 167.452 31.4176C166.348 31.4176 165.656 30.9428 165.415 29.999L164.134 30.3193C164.449 31.8123 165.679 32.6074 167.475 32.6074C169.517 32.6074 170.907 31.492 170.907 29.9761C170.907 28.7521 170.14 27.9799 168.573 27.5966L167.269 27.2763C166.228 27.0189 165.759 26.67 165.759 25.995C165.759 25.24 166.559 24.6908 167.635 24.6908C168.813 24.6908 169.299 25.3429 169.534 25.9493L170.746 25.6061ZM174.289 27.139C174.289 25.6061 175.267 24.7366 176.599 24.7366C177.869 24.7366 178.636 25.5374 178.636 26.9331V32.4243H179.986V26.8416C179.986 24.5822 178.785 23.524 176.988 23.524C175.604 23.524 174.815 24.1017 174.403 25.0112H174.289V20.7097H172.939V32.4243H174.289V27.139ZM186.025 32.6074C188.404 32.6074 190.006 30.7998 190.006 28.0771C190.006 25.3315 188.404 23.524 186.025 23.524C183.645 23.524 182.044 25.3315 182.044 28.0771C182.044 30.7998 183.645 32.6074 186.025 32.6074ZM186.025 31.3947C184.217 31.3947 183.393 29.8389 183.393 28.0771C183.393 26.3153 184.217 24.7366 186.025 24.7366C187.832 24.7366 188.656 26.3153 188.656 28.0771C188.656 29.8389 187.832 31.3947 186.025 31.3947ZM195.887 23.6384H194.011V21.5334H192.661V23.6384H191.334V24.7824H192.661V30.2736C192.661 31.8066 193.897 32.5387 195.041 32.5387C195.544 32.5387 195.865 32.4472 196.048 32.3786L195.773 31.1659C195.659 31.1888 195.476 31.2346 195.178 31.2346C194.583 31.2346 194.011 31.0515 194.011 29.9075V24.7824H195.887V23.6384ZM199.703 20.7097H198.147L198.261 29.1296H199.588L199.703 20.7097ZM198.925 32.5158C199.491 32.5158 199.954 32.0525 199.954 31.4862C199.954 30.92 199.491 30.4566 198.925 30.4566C198.358 30.4566 197.895 30.92 197.895 31.4862C197.895 32.0525 198.358 32.5158 198.925 32.5158Z" fill="#F0F2F2"/>
</svg>
