<svg width="241" height="55" viewBox="0 0 241 55" fill="none" xmlns="http://www.w3.org/2000/svg">
<rect width="240.719" height="53.6919" transform="translate(0 0.355957)" fill="#FFBF5F"/>
<path d="M22.8951 32.6738H24.3137V27.4343H30.56V32.6738H31.9785V20.9592H30.56V26.1759H24.3137V20.9592H22.8951V32.6738ZM38.3192 32.8569C40.1038 32.8569 41.408 31.9645 41.8198 30.6375L40.5157 30.2714C40.1725 31.1866 39.3774 31.6442 38.3192 31.6442C36.7347 31.6442 35.6422 30.6203 35.5793 28.7385H41.9571V28.1665C41.9571 24.8946 40.0123 23.7735 38.1819 23.7735C35.8024 23.7735 34.2236 25.6496 34.2236 28.3495C34.2236 31.0493 35.7795 32.8569 38.3192 32.8569ZM35.5793 27.5716C35.6708 26.2045 36.6375 24.9861 38.1819 24.9861C39.6462 24.9861 40.5843 26.0844 40.5843 27.5716H35.5793ZM44.6126 35.9686C45.831 35.9686 46.689 35.3222 47.1981 33.9551L50.9275 23.8879H49.4632L47.0379 30.8892H46.9464L44.5211 23.8879H43.0568L46.3057 32.7196L46.0541 33.406C45.5621 34.7445 44.9558 34.8703 43.972 34.6186L43.6288 35.8084C43.7661 35.877 44.155 35.9686 44.6126 35.9686ZM54.1722 31.0722H52.7079L52.6392 31.7129C52.4734 33.263 52.1473 34.8074 51.9986 35.5338H53.0282C53.3028 34.7559 53.8862 32.9941 54.0807 31.69L54.1722 31.0722ZM62.8051 20.9592H61.3866V32.6738H62.8051V20.9592ZM66.6561 20.9592H65.3749V22.0117C65.3749 22.8583 64.963 23.5904 64.4825 24.2768L65.2147 24.8717C66.1299 24.1396 66.6561 22.9269 66.6561 21.9888V20.9592ZM68.0933 32.6738H69.4432V27.1826C69.4432 25.8956 70.3813 24.9861 71.4338 24.9861C72.4577 24.9861 73.1727 25.6554 73.1727 26.6564V32.6738H74.5455V26.9538C74.5455 25.8212 75.2548 24.9861 76.4903 24.9861C77.4513 24.9861 78.2749 25.4952 78.2749 26.7936V32.6738H79.6249V26.7936C79.6249 24.7287 78.5152 23.7735 76.9479 23.7735C75.6895 23.7735 74.7686 24.3512 74.3167 25.2607H74.2252C73.7904 24.3226 73.024 23.7735 71.8685 23.7735C70.7245 23.7735 69.8779 24.3226 69.5119 25.2607H69.3975V23.8879H68.0933V32.6738ZM90.4443 23.8879H88.5681V21.7829H87.2182V23.8879H85.8911V25.0319H87.2182V30.5231C87.2182 32.0561 88.4537 32.7882 89.5977 32.7882C90.1011 32.7882 90.4214 32.6967 90.6044 32.6281L90.3299 31.4154C90.2155 31.4383 90.0324 31.4841 89.735 31.4841C89.1401 31.4841 88.5681 31.301 88.5681 30.157V25.0319H90.4443V23.8879ZM94.0136 27.3885C94.0136 25.8556 94.9917 24.9861 96.3245 24.9861C97.5943 24.9861 98.3608 25.7869 98.3608 27.1826V32.6738H99.7107V27.0911C99.7107 24.8317 98.5095 23.7735 96.7134 23.7735C95.3292 23.7735 94.5398 24.3512 94.128 25.2607H94.0136V20.9592H92.6636V32.6738H94.0136V27.3885ZM102.18 32.6738H103.53V23.8879H102.18V32.6738ZM102.867 22.4236C103.393 22.4236 103.828 22.0117 103.828 21.5083C103.828 21.005 103.393 20.5931 102.867 20.5931C102.34 20.5931 101.906 21.005 101.906 21.5083C101.906 22.0117 102.34 22.4236 102.867 22.4236ZM107.353 27.3885C107.353 25.8556 108.302 24.9861 109.595 24.9861C110.848 24.9861 111.608 25.8041 111.608 27.1826V32.6738H112.958V27.0911C112.958 24.8488 111.763 23.7735 109.984 23.7735C108.657 23.7735 107.833 24.3684 107.421 25.2607H107.307V23.8879H106.003V32.6738H107.353V27.3885ZM115.425 32.6738H116.775V29.3848L117.719 28.5097L121.008 32.6738H122.724L118.737 27.6402L122.449 23.8879H120.779L116.935 27.8004H116.775V20.9592H115.425V32.6738ZM124.187 32.6738H125.537V23.8879H124.187V32.6738ZM124.873 22.4236C125.399 22.4236 125.834 22.0117 125.834 21.5083C125.834 21.005 125.399 20.5931 124.873 20.5931C124.347 20.5931 123.912 21.005 123.912 21.5083C123.912 22.0117 124.347 22.4236 124.873 22.4236ZM129.359 27.3885C129.359 25.8556 130.309 24.9861 131.601 24.9861C132.854 24.9861 133.615 25.8041 133.615 27.1826V32.6738H134.965V27.0911C134.965 24.8488 133.769 23.7735 131.99 23.7735C130.663 23.7735 129.839 24.3684 129.428 25.2607H129.313V23.8879H128.009V32.6738H129.359V27.3885ZM140.978 36.1516C143.083 36.1516 144.776 35.1906 144.776 32.9255V23.8879H143.472V25.2836H143.334C143.037 24.826 142.488 23.7735 140.772 23.7735C138.553 23.7735 137.02 25.5352 137.02 28.2351C137.02 30.9807 138.621 32.5365 140.749 32.5365C142.465 32.5365 143.014 31.5298 143.312 31.0493H143.426V32.834C143.426 34.2983 142.396 34.9618 140.978 34.9618C139.382 34.9618 138.821 34.121 138.461 33.6348L137.386 34.3898C137.935 35.3108 139.016 36.1516 140.978 36.1516ZM140.932 31.3239C139.239 31.3239 138.369 30.0426 138.369 28.2122C138.369 26.4276 139.216 24.9861 140.932 24.9861C142.579 24.9861 143.449 26.3132 143.449 28.2122C143.449 30.157 142.557 31.3239 140.932 31.3239ZM155.347 32.8569C157.726 32.8569 159.328 31.0493 159.328 28.3266C159.328 25.581 157.726 23.7735 155.347 23.7735C152.967 23.7735 151.365 25.581 151.365 28.3266C151.365 31.0493 152.967 32.8569 155.347 32.8569ZM155.347 31.6442C153.539 31.6442 152.715 30.0884 152.715 28.3266C152.715 26.5648 153.539 24.9861 155.347 24.9861C157.154 24.9861 157.978 26.5648 157.978 28.3266C157.978 30.0884 157.154 31.6442 155.347 31.6442ZM165.301 23.8879H163.333V22.9956C163.333 22.1261 163.699 21.6685 164.591 21.6685C164.98 21.6685 165.209 21.76 165.347 21.8058L165.735 20.6389C165.53 20.5474 165.118 20.4101 164.454 20.4101C163.196 20.4101 161.983 21.1651 161.983 22.6752V23.8879H160.565V25.0319H161.983V32.6738H163.333V25.0319H165.301V23.8879ZM177.946 25.8556C177.523 24.6086 176.573 23.7735 174.835 23.7735C172.981 23.7735 171.609 24.826 171.609 26.3132C171.609 27.5258 172.329 28.3381 173.942 28.7156L175.407 29.0588C176.293 29.2647 176.711 29.688 176.711 30.2943C176.711 31.0493 175.91 31.6671 174.652 31.6671C173.548 31.6671 172.855 31.1923 172.615 30.2485L171.334 30.5689C171.649 32.0618 172.878 32.8569 174.674 32.8569C176.716 32.8569 178.106 31.7415 178.106 30.2257C178.106 29.0016 177.34 28.2294 175.773 27.8461L174.469 27.5258C173.427 27.2684 172.958 26.9195 172.958 26.2445C172.958 25.4895 173.759 24.9404 174.835 24.9404C176.013 24.9404 176.499 25.5924 176.734 26.1988L177.946 25.8556ZM183.822 32.8569C185.607 32.8569 186.911 31.9645 187.323 30.6375L186.019 30.2714C185.675 31.1866 184.88 31.6442 183.822 31.6442C182.238 31.6442 181.145 30.6203 181.082 28.7385H187.46V28.1665C187.46 24.8946 185.515 23.7735 183.685 23.7735C181.305 23.7735 179.727 25.6496 179.727 28.3495C179.727 31.0493 181.282 32.8569 183.822 32.8569ZM181.082 27.5716C181.174 26.2045 182.141 24.9861 183.685 24.9861C185.149 24.9861 186.087 26.0844 186.087 27.5716H181.082ZM190.864 20.9592H189.514V32.6738H190.864V20.9592ZM194.686 20.9592H193.336V32.6738H194.686V20.9592ZM197.158 32.6738H198.508V23.8879H197.158V32.6738ZM197.845 22.4236C198.371 22.4236 198.806 22.0117 198.806 21.5083C198.806 21.005 198.371 20.5931 197.845 20.5931C197.319 20.5931 196.884 21.005 196.884 21.5083C196.884 22.0117 197.319 22.4236 197.845 22.4236ZM202.331 27.3885C202.331 25.8556 203.28 24.9861 204.573 24.9861C205.826 24.9861 206.586 25.8041 206.586 27.1826V32.6738H207.936V27.0911C207.936 24.8488 206.741 23.7735 204.962 23.7735C203.635 23.7735 202.811 24.3684 202.399 25.2607H202.285V23.8879H200.981V32.6738H202.331V27.3885ZM213.95 36.1516C216.055 36.1516 217.748 35.1906 217.748 32.9255V23.8879H216.443V25.2836H216.306C216.009 24.826 215.46 23.7735 213.744 23.7735C211.524 23.7735 209.991 25.5352 209.991 28.2351C209.991 30.9807 211.593 32.5365 213.721 32.5365C215.437 32.5365 215.986 31.5298 216.283 31.0493H216.398V32.834C216.398 34.2983 215.368 34.9618 213.95 34.9618C212.354 34.9618 211.793 34.121 211.433 33.6348L210.357 34.3898C210.906 35.3108 211.988 36.1516 213.95 36.1516ZM213.904 31.3239C212.211 31.3239 211.341 30.0426 211.341 28.2122C211.341 26.4276 212.188 24.9861 213.904 24.9861C215.551 24.9861 216.421 26.3132 216.421 28.2122C216.421 30.157 215.528 31.3239 213.904 31.3239Z" fill="#0B4022"/>
</svg>
