<svg width="291" height="80" viewBox="0 0 291 80" fill="none" xmlns="http://www.w3.org/2000/svg">
<rect width="290.831" height="78.7482" transform="translate(0.109375 0.424316)" fill="#F0F2F2"/>
<path d="M31.0125 24.6884H32.4769C32.0421 22.4233 30.1431 20.8674 27.672 20.8674C24.669 20.8674 22.5469 23.1783 22.5469 26.8849C22.5469 30.5915 24.6519 32.9023 27.7636 32.9023C30.5549 32.9023 32.5455 31.0433 32.5455 28.1433V26.8849H28.0839V28.1433H31.1727C31.1327 30.2483 29.7484 31.5753 27.7636 31.5753C25.59 31.5753 23.9197 29.9279 23.9197 26.8849C23.9197 23.8418 25.59 22.1945 27.672 22.1945C29.3652 22.1945 30.5149 23.1497 31.0125 24.6884ZM34.792 32.7422H36.142V27.1823C36.142 25.9926 37.08 25.1231 38.3613 25.1231C38.7217 25.1231 39.0935 25.1918 39.185 25.2146V23.8418C39.0306 23.8304 38.6759 23.819 38.4757 23.819C37.4232 23.819 36.508 24.4138 36.1877 25.2833H36.0962V23.9562H34.792V32.7422ZM44.2015 32.9252C45.9861 32.9252 47.2903 32.0329 47.7021 30.7059L46.398 30.3398C46.0548 31.255 45.2597 31.7126 44.2015 31.7126C42.617 31.7126 41.5245 30.6887 41.4616 28.8068H47.8394V28.2348C47.8394 24.963 45.8946 23.8418 44.0642 23.8418C41.6847 23.8418 40.1059 25.718 40.1059 28.4179C40.1059 31.1177 41.6618 32.9252 44.2015 32.9252ZM41.4616 27.6399C41.5531 26.2728 42.5198 25.0545 44.0642 25.0545C45.5285 25.0545 46.4666 26.1527 46.4666 27.6399H41.4616ZM52.4783 32.9481C54.0113 32.9481 54.8121 32.1244 55.0867 31.5524H55.1553V32.7422H56.5052V26.9535C56.5052 24.1622 54.3774 23.8418 53.2563 23.8418C51.9292 23.8418 50.4191 24.2994 49.7327 25.901L51.014 26.3586C51.3115 25.718 52.015 25.0316 53.302 25.0316C54.5433 25.0316 55.1553 25.6894 55.1553 26.8162V26.862C55.1553 27.5141 54.4918 27.4569 52.8902 27.6628C51.26 27.8744 49.481 28.2348 49.481 30.2483C49.481 31.9643 50.8081 32.9481 52.4783 32.9481ZM52.6843 31.7355C51.6089 31.7355 50.831 31.255 50.831 30.3169C50.831 29.2873 51.7691 28.967 52.8215 28.8297C53.3935 28.7611 54.9265 28.6009 55.1553 28.3263V29.5619C55.1553 30.6601 54.2859 31.7355 52.6843 31.7355ZM62.7901 23.9562H60.9139V21.8513H59.564V23.9562H58.237V25.1002H59.564V30.5915C59.564 32.1244 60.7995 32.8566 61.9435 32.8566C62.4469 32.8566 62.7672 32.7651 62.9503 32.6964L62.6757 31.4838C62.5613 31.5067 62.3783 31.5524 62.0808 31.5524C61.4859 31.5524 60.9139 31.3694 60.9139 30.2254V25.1002H62.7901V23.9562ZM66.6054 21.0276H65.0495L65.1639 29.4475H66.491L66.6054 21.0276ZM65.8274 32.8337C66.3937 32.8337 66.857 32.3704 66.857 31.8041C66.857 31.2378 66.3937 30.7745 65.8274 30.7745C65.2612 30.7745 64.7978 31.2378 64.7978 31.8041C64.7978 32.3704 65.2612 32.8337 65.8274 32.8337ZM74.0171 32.7422H75.4356V27.5026H80.515V26.2442H75.4356V22.286H81.0413V21.0276H74.0171V32.7422ZM83.2878 32.7422H84.6377V23.9562H83.2878V32.7422ZM83.9742 22.4919C84.5004 22.4919 84.9352 22.0801 84.9352 21.5767C84.9352 21.0733 84.5004 20.6615 83.9742 20.6615C83.448 20.6615 83.0132 21.0733 83.0132 21.5767C83.0132 22.0801 83.448 22.4919 83.9742 22.4919ZM88.4601 21.0276H87.1102V32.7422H88.4601V21.0276ZM92.2825 21.0276H90.9326V32.7422H92.2825V21.0276ZM102.855 32.9252C105.234 32.9252 106.836 31.1177 106.836 28.395C106.836 25.6494 105.234 23.8418 102.855 23.8418C100.475 23.8418 98.8734 25.6494 98.8734 28.395C98.8734 31.1177 100.475 32.9252 102.855 32.9252ZM102.855 31.7126C101.047 31.7126 100.223 30.1567 100.223 28.395C100.223 26.6332 101.047 25.0545 102.855 25.0545C104.662 25.0545 105.486 26.6332 105.486 28.395C105.486 30.1567 104.662 31.7126 102.855 31.7126ZM114.433 29.15C114.433 30.7974 113.175 31.5524 112.168 31.5524C111.047 31.5524 110.246 30.7287 110.246 29.4475V23.9562H108.896V29.539C108.896 31.7812 110.086 32.8566 111.733 32.8566C113.061 32.8566 113.93 32.1473 114.342 31.255H114.433V32.7422H115.783V23.9562H114.433V29.15ZM122.077 23.9562H120.201V21.8513H118.851V23.9562H117.524V25.1002H118.851V30.5915C118.851 32.1244 120.086 32.8566 121.23 32.8566C121.733 32.8566 122.054 32.7651 122.237 32.6964L121.962 31.4838C121.848 31.5067 121.665 31.5524 121.367 31.5524C120.773 31.5524 120.201 31.3694 120.201 30.2254V25.1002H122.077V23.9562ZM132.459 23.9562H130.582V21.8513H129.232V23.9562H127.905V25.1002H129.232V30.5915C129.232 32.1244 130.468 32.8566 131.612 32.8566C132.115 32.8566 132.436 32.7651 132.619 32.6964L132.344 31.4838C132.23 31.5067 132.047 31.5524 131.749 31.5524C131.154 31.5524 130.582 31.3694 130.582 30.2254V25.1002H132.459V23.9562ZM136.028 27.4569C136.028 25.9239 137.006 25.0545 138.339 25.0545C139.609 25.0545 140.375 25.8553 140.375 27.251V32.7422H141.725V27.1594C141.725 24.9 140.524 23.8418 138.728 23.8418C137.343 23.8418 136.554 24.4196 136.142 25.329H136.028V21.0276H134.678V32.7422H136.028V27.4569ZM144.195 32.7422H145.545V23.9562H144.195V32.7422ZM144.881 22.4919C145.407 22.4919 145.842 22.0801 145.842 21.5767C145.842 21.0733 145.407 20.6615 144.881 20.6615C144.355 20.6615 143.92 21.0733 143.92 21.5767C143.92 22.0801 144.355 22.4919 144.881 22.4919ZM154.24 25.9239C153.817 24.677 152.868 23.8418 151.129 23.8418C149.275 23.8418 147.903 24.8943 147.903 26.3815C147.903 27.5942 148.623 28.4064 150.236 28.7839L151.701 29.1271C152.587 29.3331 153.005 29.7563 153.005 30.3627C153.005 31.1177 152.204 31.7355 150.946 31.7355C149.842 31.7355 149.15 31.2607 148.909 30.3169L147.628 30.6372C147.943 32.1301 149.172 32.9252 150.969 32.9252C153.011 32.9252 154.401 31.8098 154.401 30.294C154.401 29.0699 153.634 28.2977 152.067 27.9145L150.763 27.5942C149.722 27.3368 149.253 26.9878 149.253 26.3129C149.253 25.5578 150.053 25.0087 151.129 25.0087C152.307 25.0087 152.793 25.6608 153.028 26.2671L154.24 25.9239ZM164.875 23.9562H162.908V23.0639C162.908 22.1945 163.274 21.7369 164.166 21.7369C164.555 21.7369 164.784 21.8284 164.921 21.8741L165.31 20.7073C165.104 20.6157 164.692 20.4785 164.029 20.4785C162.77 20.4785 161.558 21.2335 161.558 22.7436V23.9562H160.139V25.1002H161.558V32.7422H162.908V25.1002H164.875V23.9562ZM169.975 32.9252C172.354 32.9252 173.956 31.1177 173.956 28.395C173.956 25.6494 172.354 23.8418 169.975 23.8418C167.595 23.8418 165.994 25.6494 165.994 28.395C165.994 31.1177 167.595 32.9252 169.975 32.9252ZM169.975 31.7126C168.167 31.7126 167.343 30.1567 167.343 28.395C167.343 26.6332 168.167 25.0545 169.975 25.0545C171.782 25.0545 172.606 26.6332 172.606 28.395C172.606 30.1567 171.782 31.7126 169.975 31.7126ZM176.016 32.7422H177.366V27.1823C177.366 25.9926 178.304 25.1231 179.586 25.1231C179.946 25.1231 180.318 25.1918 180.409 25.2146V23.8418C180.255 23.8304 179.9 23.819 179.7 23.819C178.648 23.819 177.732 24.4138 177.412 25.2833H177.321V23.9562H176.016V32.7422ZM182.01 32.7422H183.36V27.251C183.36 25.964 184.298 25.0545 185.35 25.0545C186.374 25.0545 187.089 25.7237 187.089 26.7247V32.7422H188.462V27.0222C188.462 25.8896 189.171 25.0545 190.407 25.0545C191.368 25.0545 192.191 25.5636 192.191 26.862V32.7422H193.541V26.862C193.541 24.7971 192.432 23.8418 190.864 23.8418C189.606 23.8418 188.685 24.4196 188.233 25.329H188.141C187.707 24.391 186.94 23.8418 185.785 23.8418C184.641 23.8418 183.794 24.391 183.428 25.329H183.314V23.9562H182.01V32.7422ZM203.125 32.9481C204.658 32.9481 205.459 32.1244 205.733 31.5524H205.802V32.7422H207.152V26.9535C207.152 24.1622 205.024 23.8418 203.903 23.8418C202.576 23.8418 201.066 24.2994 200.379 25.901L201.661 26.3586C201.958 25.718 202.662 25.0316 203.949 25.0316C205.19 25.0316 205.802 25.6894 205.802 26.8162V26.862C205.802 27.5141 205.139 27.4569 203.537 27.6628C201.907 27.8744 200.128 28.2348 200.128 30.2483C200.128 31.9643 201.455 32.9481 203.125 32.9481ZM203.331 31.7355C202.256 31.7355 201.478 31.255 201.478 30.3169C201.478 29.2873 202.416 28.967 203.468 28.8297C204.04 28.7611 205.573 28.6009 205.802 28.3263V29.5619C205.802 30.6601 204.933 31.7355 203.331 31.7355ZM210.966 27.4569C210.966 25.9239 211.915 25.0545 213.208 25.0545C214.461 25.0545 215.222 25.8724 215.222 27.251V32.7422H216.571V27.1594C216.571 24.9172 215.376 23.8418 213.597 23.8418C212.27 23.8418 211.446 24.4367 211.034 25.329H210.92V23.9562H209.616V32.7422H210.966V27.4569ZM222.356 32.9252C224.049 32.9252 224.621 31.8727 224.918 31.3923H225.079V32.7422H226.383V21.0276H225.033V25.3519H224.918C224.621 24.8943 224.095 23.8418 222.379 23.8418C220.159 23.8418 218.626 25.6036 218.626 28.3721C218.626 31.1635 220.159 32.9252 222.356 32.9252ZM222.539 31.7126C220.846 31.7126 219.976 30.2254 219.976 28.3492C219.976 26.4959 220.823 25.0545 222.539 25.0545C224.186 25.0545 225.056 26.3815 225.056 28.3492C225.056 30.3398 224.163 31.7126 222.539 31.7126ZM235.563 32.7422H236.89L238.812 25.9926H238.95L240.872 32.7422H242.199L244.876 23.9562H243.457L241.558 30.6601H241.466L239.613 23.9562H238.172L236.295 30.683H236.204L234.305 23.9562H232.886L235.563 32.7422ZM250.045 32.9252C251.83 32.9252 253.134 32.0329 253.546 30.7059L252.241 30.3398C251.898 31.255 251.103 31.7126 250.045 31.7126C248.461 31.7126 247.368 30.6887 247.305 28.8068H253.683V28.2348C253.683 24.963 251.738 23.8418 249.908 23.8418C247.528 23.8418 245.949 25.718 245.949 28.4179C245.949 31.1177 247.505 32.9252 250.045 32.9252ZM247.305 27.6399C247.397 26.2728 248.363 25.0545 249.908 25.0545C251.372 25.0545 252.31 26.1527 252.31 27.6399H247.305ZM256.926 21.0276H255.645V22.0801C255.645 22.9266 255.233 23.6588 254.753 24.3452L255.485 24.9401C256.4 24.2079 256.926 22.9953 256.926 22.0572V21.0276ZM260.059 21.0276H258.709V32.7422H260.059V21.0276ZM263.882 21.0276H262.532V32.7422H263.882V21.0276ZM29.0448 50.9239C28.6216 49.677 27.672 48.8418 25.9332 48.8418C24.0799 48.8418 22.7071 49.8943 22.7071 51.3815C22.7071 52.5942 23.4278 53.4064 25.0408 53.7839L26.5052 54.1271C27.3918 54.3331 27.8093 54.7563 27.8093 55.3627C27.8093 56.1177 27.0085 56.7355 25.7501 56.7355C24.6461 56.7355 23.954 56.2607 23.7138 55.3169L22.4325 55.6372C22.7471 57.1301 23.9769 57.9252 25.773 57.9252C27.815 57.9252 29.205 56.8098 29.205 55.294C29.205 54.0699 28.4385 53.2977 26.8712 52.9145L25.5671 52.5942C24.526 52.3368 24.057 51.9878 24.057 51.3129C24.057 50.5578 24.8578 50.0087 25.9332 50.0087C27.1115 50.0087 27.5977 50.6608 27.8322 51.2671L29.0448 50.9239ZM34.9207 57.9252C36.7054 57.9252 38.0095 57.0329 38.4214 55.7059L37.1172 55.3398C36.774 56.255 35.9789 56.7126 34.9207 56.7126C33.3363 56.7126 32.2438 55.6887 32.1808 53.8068H38.5587V53.2348C38.5587 49.963 36.6139 48.8418 34.7835 48.8418C32.4039 48.8418 30.8252 50.718 30.8252 53.4179C30.8252 56.1177 32.381 57.9252 34.9207 57.9252ZM32.1808 52.6399C32.2724 51.2728 33.2391 50.0545 34.7835 50.0545C36.2478 50.0545 37.1859 51.1527 37.1859 52.6399H32.1808ZM41.9621 52.4569C41.9621 50.9239 42.9116 50.0545 44.2043 50.0545C45.457 50.0545 46.2178 50.8724 46.2178 52.251V57.7422H47.5677V52.1594C47.5677 49.9172 46.3722 48.8418 44.5933 48.8418C43.2662 48.8418 42.4426 49.4367 42.0307 50.329H41.9163V48.9562H40.6122V57.7422H41.9621V52.4569ZM53.3521 57.9252C55.0452 57.9252 55.6172 56.8727 55.9146 56.3923H56.0748V57.7422H57.379V46.0276H56.029V50.3519H55.9146C55.6172 49.8943 55.091 48.8418 53.375 48.8418C51.1556 48.8418 49.6226 50.6036 49.6226 53.3721C49.6226 56.1635 51.1556 57.9252 53.3521 57.9252ZM53.5351 56.7126C51.842 56.7126 50.9725 55.2254 50.9725 53.3492C50.9725 51.4959 51.8191 50.0545 53.5351 50.0545C55.1825 50.0545 56.0519 51.3815 56.0519 53.3492C56.0519 55.3398 55.1596 56.7126 53.5351 56.7126ZM65.4385 61.0369C66.6568 61.0369 67.5148 60.3906 68.0239 59.0235L71.7534 48.9562H70.2891L67.8638 55.9575H67.7722L65.347 48.9562H63.8826L67.1316 57.7879L66.8799 58.4744C66.388 59.8128 65.7817 59.9387 64.7978 59.687L64.4546 60.8768C64.5919 60.9454 64.9809 61.0369 65.4385 61.0369ZM76.7899 57.9252C79.1694 57.9252 80.771 56.1177 80.771 53.395C80.771 50.6494 79.1694 48.8418 76.7899 48.8418C74.4103 48.8418 72.8087 50.6494 72.8087 53.395C72.8087 56.1177 74.4103 57.9252 76.7899 57.9252ZM76.7899 56.7126C74.9823 56.7126 74.1586 55.1567 74.1586 53.395C74.1586 51.6332 74.9823 50.0545 76.7899 50.0545C78.5974 50.0545 79.4211 51.6332 79.4211 53.395C79.4211 55.1567 78.5974 56.7126 76.7899 56.7126ZM88.3686 54.15C88.3686 55.7974 87.1102 56.5524 86.1035 56.5524C84.9824 56.5524 84.1816 55.7287 84.1816 54.4475V48.9562H82.8316V54.539C82.8316 56.7812 84.0214 57.8566 85.6688 57.8566C86.9958 57.8566 87.8652 57.1473 88.2771 56.255H88.3686V57.7422H89.7185V48.9562H88.3686V54.15ZM99.3067 57.9481C100.84 57.9481 101.64 57.1244 101.915 56.5524H101.984V57.7422H103.334V51.9535C103.334 49.1622 101.206 48.8418 100.085 48.8418C98.7576 48.8418 97.2475 49.2994 96.5611 50.901L97.8424 51.3586C98.1398 50.718 98.8434 50.0316 100.13 50.0316C101.372 50.0316 101.984 50.6894 101.984 51.8162V51.862C101.984 52.5141 101.32 52.4569 99.7186 52.6628C98.0884 52.8744 96.3094 53.2348 96.3094 55.2483C96.3094 56.9643 97.6365 57.9481 99.3067 57.9481ZM99.5126 56.7355C98.4373 56.7355 97.6594 56.255 97.6594 55.3169C97.6594 54.2873 98.5974 53.967 99.6499 53.8297C100.222 53.7611 101.755 53.6009 101.984 53.3263V54.5619C101.984 55.6601 101.114 56.7355 99.5126 56.7355ZM107.147 52.4569C107.147 50.9239 108.097 50.0545 109.39 50.0545C110.642 50.0545 111.403 50.8724 111.403 52.251V57.7422H112.753V52.1594C112.753 49.9172 111.558 48.8418 109.779 48.8418C108.452 48.8418 107.628 49.4367 107.216 50.329H107.102V48.9562H105.798V57.7422H107.147V52.4569ZM123.319 57.9252C125.699 57.9252 127.301 56.1177 127.301 53.395C127.301 50.6494 125.699 48.8418 123.319 48.8418C120.94 48.8418 119.338 50.6494 119.338 53.395C119.338 56.1177 120.94 57.9252 123.319 57.9252ZM123.319 56.7126C121.512 56.7126 120.688 55.1567 120.688 53.395C120.688 51.6332 121.512 50.0545 123.319 50.0545C125.127 50.0545 125.951 51.6332 125.951 53.395C125.951 55.1567 125.127 56.7126 123.319 56.7126ZM133.274 48.9562H131.306V48.0639C131.306 47.1945 131.672 46.7369 132.564 46.7369C132.953 46.7369 133.182 46.8284 133.319 46.8741L133.708 45.7073C133.502 45.6157 133.091 45.4785 132.427 45.4785C131.169 45.4785 129.956 46.2335 129.956 47.7436V48.9562H128.537V50.1002H129.956V57.7422H131.306V50.1002H133.274V48.9562ZM139.078 48.9562H137.11V48.0639C137.11 47.1945 137.476 46.7369 138.369 46.7369C138.758 46.7369 138.986 46.8284 139.124 46.8741L139.513 45.7073C139.307 45.6157 138.895 45.4785 138.231 45.4785C136.973 45.4785 135.76 46.2335 135.76 47.7436V48.9562H134.342V50.1002H135.76V57.7422H137.11V50.1002H139.078V48.9562ZM144.292 57.9252C146.076 57.9252 147.381 57.0329 147.792 55.7059L146.488 55.3398C146.145 56.255 145.35 56.7126 144.292 56.7126C142.707 56.7126 141.615 55.6887 141.552 53.8068H147.93V53.2348C147.93 49.963 145.985 48.8418 144.155 48.8418C141.775 48.8418 140.196 50.718 140.196 53.4179C140.196 56.1177 141.752 57.9252 144.292 57.9252ZM141.552 52.6399C141.643 51.2728 142.61 50.0545 144.155 50.0545C145.619 50.0545 146.557 51.1527 146.557 52.6399H141.552ZM149.983 57.7422H151.333V52.1823C151.333 50.9926 152.271 50.1231 153.553 50.1231C153.913 50.1231 154.285 50.1918 154.376 50.2146V48.8418C154.222 48.8304 153.867 48.819 153.667 48.819C152.614 48.819 151.699 49.4138 151.379 50.2833H151.287V48.9562H149.983V57.7422ZM160.507 57.7422H161.857V48.9562H160.507V57.7422ZM161.193 47.4919C161.719 47.4919 162.154 47.0801 162.154 46.5767C162.154 46.0733 161.719 45.6615 161.193 45.6615C160.667 45.6615 160.232 46.0733 160.232 46.5767C160.232 47.0801 160.667 47.4919 161.193 47.4919ZM165.679 52.4569C165.679 50.9239 166.628 50.0545 167.921 50.0545C169.174 50.0545 169.935 50.8724 169.935 52.251V57.7422H171.285V52.1594C171.285 49.9172 170.089 48.8418 168.31 48.8418C166.983 48.8418 166.159 49.4367 165.748 50.329H165.633V48.9562H164.329V57.7422H165.679V52.4569ZM182.377 46.0276H180.959L178.03 47.9724V49.4138L180.89 47.5148H180.959V57.7422H182.377V46.0276ZM185.472 55.3398H190.986V57.7422H192.336V55.3398H193.937V54.0814H192.336V46.0276H190.62L185.472 54.1729V55.3398ZM190.986 54.0814H187.005V53.9899L190.894 47.8351H190.986V54.0814ZM203.952 57.9252C205.645 57.9252 206.217 56.8727 206.514 56.3923H206.674V57.7422H207.979V46.0276H206.629V50.3519H206.514C206.217 49.8943 205.691 48.8418 203.975 48.8418C201.755 48.8418 200.222 50.6036 200.222 53.3721C200.222 56.1635 201.755 57.9252 203.952 57.9252ZM204.135 56.7126C202.442 56.7126 201.572 55.2254 201.572 53.3492C201.572 51.4959 202.419 50.0545 204.135 50.0545C205.782 50.0545 206.651 51.3815 206.651 53.3492C206.651 55.3398 205.759 56.7126 204.135 56.7126ZM213.224 57.9481C214.757 57.9481 215.558 57.1244 215.832 56.5524H215.901V57.7422H217.251V51.9535C217.251 49.1622 215.123 48.8418 214.002 48.8418C212.675 48.8418 211.165 49.2994 210.478 50.901L211.759 51.3586C212.057 50.718 212.76 50.0316 214.047 50.0316C215.289 50.0316 215.901 50.6894 215.901 51.8162V51.862C215.901 52.5141 215.237 52.4569 213.636 52.6628C212.005 52.8744 210.226 53.2348 210.226 55.2483C210.226 56.9643 211.554 57.9481 213.224 57.9481ZM213.43 56.7355C212.354 56.7355 211.576 56.255 211.576 55.3169C211.576 54.2873 212.515 53.967 213.567 53.8297C214.139 53.7611 215.672 53.6009 215.901 53.3263V54.5619C215.901 55.6601 215.031 56.7355 213.43 56.7355ZM220.269 61.0369C221.488 61.0369 222.346 60.3906 222.855 59.0235L226.584 48.9562H225.12L222.695 55.9575H222.603L220.178 48.9562H218.714L221.963 57.7879L221.711 58.4744C221.219 59.8128 220.613 59.9387 219.629 59.687L219.286 60.8768C219.423 60.9454 219.812 61.0369 220.269 61.0369ZM234.589 50.9239C234.166 49.677 233.217 48.8418 231.478 48.8418C229.625 48.8418 228.252 49.8943 228.252 51.3815C228.252 52.5942 228.972 53.4064 230.585 53.7839L232.05 54.1271C232.936 54.3331 233.354 54.7563 233.354 55.3627C233.354 56.1177 232.553 56.7355 231.295 56.7355C230.191 56.7355 229.499 56.2607 229.258 55.3169L227.977 55.6372C228.292 57.1301 229.522 57.9252 231.318 57.9252C233.36 57.9252 234.75 56.8098 234.75 55.294C234.75 54.0699 233.983 53.2977 232.416 52.9145L231.112 52.5942C230.071 52.3368 229.602 51.9878 229.602 51.3129C229.602 50.5578 230.402 50.0087 231.478 50.0087C232.656 50.0087 233.142 50.6608 233.377 51.2671L234.589 50.9239ZM237.766 57.8337C238.332 57.8337 238.795 57.3704 238.795 56.8041C238.795 56.2378 238.332 55.7745 237.766 55.7745C237.199 55.7745 236.736 56.2378 236.736 56.8041C236.736 57.3704 237.199 57.8337 237.766 57.8337Z" fill="#0B4022"/>
</svg>
