<svg width="396" height="342" viewBox="0 0 396 342" fill="none" xmlns="http://www.w3.org/2000/svg">
<g clip-path="url(#clip0)">
<path fill-rule="evenodd" clip-rule="evenodd" d="M77.8102 153.257C71.0812 151.815 70.3579 150.641 71.0213 158.511C72.4738 158.959 75.6722 154.373 77.8102 153.257ZM82.0925 154.779C67.023 168.561 67.5243 169.664 68.5154 148.458C69.4168 146.511 75.3474 149.889 77.3572 149.936C80.3682 150.651 85.1823 151.331 82.0925 154.779Z" fill="#B56233"/>
<path fill-rule="evenodd" clip-rule="evenodd" d="M45.3471 160.077C45.911 160.042 46.4424 161.717 46.9523 160.348C47.5635 158.547 48.9894 156.918 49.1979 155.042C42.0112 155.796 39.0561 152.569 45.3471 160.077ZM44.6464 165.072C38.0937 158.542 29.7452 151.1 45.576 152.836C47.2417 152.875 48.9048 153.023 50.5704 153.1C51.8744 152.498 53.6859 152.025 54.4022 153.671C55.1972 155.444 53.2811 156.371 52.9277 157.828C52.243 159.922 51.0774 161.9 50.3123 163.981C49.8316 165.172 48.9611 164.264 48.2854 164.393C46.9851 164.623 46.0298 164.785 44.6464 165.072Z" fill="#B56233"/>
<path fill-rule="evenodd" clip-rule="evenodd" d="M77.7947 130.898C81.9838 126.414 86.103 124.649 77.6527 124.904C76.0284 124.499 77.6817 129.953 77.7947 130.898ZM82.8237 131.251C81.3572 132.83 80.4203 134.544 78.4063 135.236C77.4819 135.69 76.7593 137.504 75.645 137.057C73.8263 134.214 72.2457 125.457 72.8397 122.212C76.4777 119.863 81.7917 123.615 85.9777 123.424C92.9574 123.657 84.2265 129.189 82.8237 131.251Z" fill="#B56233"/>
<path fill-rule="evenodd" clip-rule="evenodd" d="M54.5056 130.83C54.9663 130.57 56.2011 128.78 55.7516 128.083C53.6228 128.095 51.2511 127.235 49.2411 127.882C51.1965 130.594 51.5548 136.341 54.5056 130.83ZM51.8296 138.88C50.1893 142.498 48.5156 134.935 47.3477 133.664C46.3908 131.122 43.4371 127.849 45.3192 125.212C47.0571 124.014 58.762 126.125 60.205 127.508C61.0422 130.959 56.4938 133.983 55.1219 137.039C54.3096 138.446 52.9318 138.113 51.8296 138.88Z" fill="#B56233"/>
<path fill-rule="evenodd" clip-rule="evenodd" d="M102.183 149.863C96.0666 146.214 95.5087 147.011 99.1637 153.251C100.344 152.673 100.983 151.084 102.183 149.863ZM105.876 149.423C110.644 149.879 103.053 155.637 102.396 157.805C100.909 160.204 97.9273 161.095 97.1144 158.061C96.3895 153.52 93.1307 149.827 93.0422 145.346C93.1835 145.197 93.8962 145.031 94.2063 145.22C94.1749 144.751 94.9452 143.952 95.1659 143.947C97.8394 145.27 106.476 145.873 105.876 149.423Z" fill="#B56233"/>
<path fill-rule="evenodd" clip-rule="evenodd" d="M70.3944 109.809C71.9448 107.927 73.5559 104.877 74.2731 102.672C64.8257 102.921 65.2124 101.645 70.3944 109.809ZM69.2919 113.207C66.1742 107.403 54.1116 96.1603 69.2952 99.6885C71.2367 100.392 75.9131 99.205 76.5134 101.307C78.4232 104.277 76.6243 107.102 75.0918 109.808C73.7665 111.917 72.1001 116.464 69.2919 113.207Z" fill="#B56233"/>
<path fill-rule="evenodd" clip-rule="evenodd" d="M87.5249 171.899C86.058 169.662 85.4495 174.675 84.7799 175.846C85.5743 176.989 89.7395 174.706 91.6198 174.625C91.9782 173.801 88.485 172.752 87.5249 171.899ZM86.387 167.056C97.3866 176.727 102.262 176.335 84.7183 179.65C83.7464 179.888 77.1799 180.337 78.3783 178.619C80.8108 174.997 81.2901 167.522 86.387 167.056Z" fill="#B56233"/>
<path fill-rule="evenodd" clip-rule="evenodd" d="M29.9693 138.273C30.6299 138.991 31.5982 142.964 32.6423 141.777C32.981 140.083 34.8251 137.963 34.1238 136.37C30.3019 136.087 23.884 133.056 29.9693 138.273ZM31.3776 147.193C29.1404 143.075 26.1536 139.548 23.1332 136.003C23.7378 130.387 33.7339 132.06 37.3562 133.734C38.3079 136.235 36.323 139.213 35.7349 141.691C34.4747 144.683 35.8056 150.269 31.3776 147.193Z" fill="#B56233"/>
<path fill-rule="evenodd" clip-rule="evenodd" d="M119.939 96.2888C123.698 93.292 117.85 94.4982 115.582 94.1535C116.634 99.263 115.991 103.035 119.939 96.2888ZM125.658 94.4893C122.334 98.6272 119.955 103.512 115.057 105.756C113.595 101.921 112.277 97.9207 110.765 94.0904C109.35 87.8851 118.7 92.0116 121.976 92.0468C123.704 91.7531 128.142 92.7368 125.658 94.4893Z" fill="#B56233"/>
<path fill-rule="evenodd" clip-rule="evenodd" d="M141.676 111.609C139.285 107.689 137.246 115.663 135.494 117.452C139.279 117.05 143.123 116.404 146.88 115.739C145.251 114.254 143.389 113.007 141.676 111.609ZM140.178 107.54C141.54 105.15 147.367 113.977 148.704 115.199C149.74 115.678 151.188 115.293 150.402 117.01C148.416 119.659 143.695 118.582 140.679 119.558C135.5 120.186 127.162 121.819 133.567 114.289C135.54 111.767 136.26 107.24 140.178 107.54Z" fill="#B56233"/>
<path fill-rule="evenodd" clip-rule="evenodd" d="M127.088 132.574C129.421 130.518 121.521 131.297 119.981 131.107C122.579 139.05 121.703 137.831 127.088 132.574ZM130.943 134.82C128.888 136.038 124.184 143.852 122.087 141.06C121.75 139.379 119.672 139.415 119.378 137.362C119.057 134.989 115.567 130.137 116.754 128.432C120.886 127.65 125.137 129.705 129.348 129.846C133.018 129.528 133.772 132.481 130.943 134.82Z" fill="#B56233"/>
<path fill-rule="evenodd" clip-rule="evenodd" d="M102.422 127.191C106.309 120.005 111.819 118.181 100.259 117.995C98.1435 117.084 101.26 126.707 102.422 127.191ZM109.515 120.819C107.566 122.523 102.227 135.391 99.7487 130.363C97.7618 127.055 97.0253 123.396 96.4061 119.635C95.6354 117.816 97.2821 117.202 97.7458 115.731C97.8121 114.575 98.1179 114.544 99.7564 114.967C102.571 116.38 112.936 115.693 109.515 120.819Z" fill="#B56233"/>
<path fill-rule="evenodd" clip-rule="evenodd" d="M95.1465 91.6079C92.4477 99.9817 90.1863 101.525 99.9261 97.5836C99.1113 95.5708 96.6146 93.6695 95.1465 91.6079ZM94.7094 88.3578C102.97 96.7461 111.127 98.8685 94.611 102.966C93.1743 103.189 90.725 105.318 89.9256 103.333C91.5625 98.5684 91.5801 92.1734 94.7094 88.3578Z" fill="#B56233"/>
<path fill-rule="evenodd" clip-rule="evenodd" d="M64.1403 181.597C64.4028 180.246 65.9726 178.381 65.4047 177.445C60.7141 178.023 61.0608 178.359 64.1403 181.597ZM68.8293 176.05C67.8377 183.386 64.852 191.412 59.439 180.911C57.7805 179.47 58.6196 177.91 58.4493 176.068C58.0334 173.313 65.121 175.724 66.462 173.968C67.0118 171.884 70.9641 174.752 68.8293 176.05Z" fill="#B56233"/>
<path fill-rule="evenodd" clip-rule="evenodd" d="M94.01 77.9449C97.1697 79.5528 97.8952 79.958 97.2441 75.9541C96.1447 75.7693 95.1344 77.3728 94.01 77.9449ZM91.4596 76.5047C94.7067 75.2957 100.73 66.736 101.756 73.9449C102.027 76.5512 101.989 79.218 101.817 81.8316C101.188 82.5811 99.4418 81.4578 99.0653 82.3379C98.2215 82.8639 96.7778 80.5678 94.6836 80.4858C92.2422 79.4462 88.4495 79.6208 91.4596 76.5047Z" fill="#B56233"/>
<path fill-rule="evenodd" clip-rule="evenodd" d="M78.9056 86.433C79.8638 86.6734 80.4612 84.4945 80.2569 83.8649C76.7239 83.2492 77.0511 83.6831 78.9056 86.433ZM84.4563 81.2828C84.0936 82.4303 85.7459 83.7913 85.0986 84.2627C81.9603 83.4749 82.1373 92.7773 79.5367 92.5293C76.6313 89.9345 74.9366 86.7632 74.0075 82.9821C73.9793 80.1213 82.315 81.1803 84.4563 81.2828Z" fill="#B56233"/>
<path fill-rule="evenodd" clip-rule="evenodd" d="M120.65 153.491C117.512 152.261 117.567 152.88 118.785 155.73C119.526 155.941 120.126 154.056 120.65 153.491ZM123.156 154.962C121.524 156.449 118.983 162.686 116.629 160.056C115.902 156.184 112.645 152.547 115.219 148.925C115.14 147.461 115.911 147.925 116.595 148.263C118.673 148.981 120.662 151.012 122.827 150.918C124.987 150.683 124.406 153.975 123.156 154.962Z" fill="#B56233"/>
<path fill-rule="evenodd" clip-rule="evenodd" d="M114.975 76.4978C111.402 79.8461 114.194 79.7002 117.368 80.3338C117.287 79.4859 115.688 77.82 114.975 76.4978ZM115.559 73.0353C125.428 83.0022 123.634 86.9926 110.546 80.7283C107.318 80.0807 112.183 76.7412 112.934 75.0847C112.524 73.5584 114.18 72.8699 115.559 73.0353Z" fill="#B56233"/>
<path fill-rule="evenodd" clip-rule="evenodd" d="M79.5008 192.485C78.7143 192.235 79.0227 192.649 79.0591 193.174C79.349 193.067 79.3252 192.788 79.5008 192.485ZM80.1082 197.126C76.9871 199.296 75.644 189.855 75.5912 187.703C82.6253 191.868 84.8516 190.824 80.1082 197.126Z" fill="#B56233"/>
<path fill-rule="evenodd" clip-rule="evenodd" d="M137.997 96.1162C142.243 96.9933 136.038 101.174 134.317 101.568C132.001 100.552 132.971 97.0077 132.604 94.9329C131.993 93.1179 138.492 94.8343 137.997 96.1162Z" fill="#B56233"/>
<path fill-rule="evenodd" clip-rule="evenodd" d="M110.04 135.658C113.846 129.927 112.983 136.506 113.835 139.647C113.718 142.971 104.012 139.79 110.04 135.658Z" fill="#B56233"/>
<path fill-rule="evenodd" clip-rule="evenodd" d="M61.9157 145.618C60.6051 143.914 55.8524 142.486 58.5162 140.358C60.1199 139.844 63.3695 138.334 63.7982 140.926C64.7365 147.189 65.037 144.279 61.9157 145.618Z" fill="#B56233"/>
<path fill-rule="evenodd" clip-rule="evenodd" d="M121.023 121.069C120.906 118.758 119.189 116.946 119.767 115.032C120.449 114.903 121.224 115.025 121.497 114.095C122.669 113.984 126.68 114.862 125.539 116.686C124.211 118.544 123.742 120.923 121.023 121.069Z" fill="#B56233"/>
<path fill-rule="evenodd" clip-rule="evenodd" d="M55.9676 110.685C57.7146 112.373 54.5437 113.328 54.2236 115.069C53.6141 116.291 52.3147 115.527 51.6116 116.525C50.3493 117.37 49.6783 112.498 49.8943 111.27C51.4317 110.33 54.1305 110.635 55.9676 110.685Z" fill="#B56233"/>
<path fill-rule="evenodd" clip-rule="evenodd" d="M100.67 61.9295C101.686 70.6636 93.0217 62.0769 96.1549 59.8946C97.4558 59.3012 99.0626 59.9024 100.399 60.1341C100.58 60.5021 101.832 62.2412 100.67 61.9295Z" fill="#B56233"/>
<path fill-rule="evenodd" clip-rule="evenodd" d="M103.28 165.862C99.1956 172.603 100.864 169.324 96.6654 167.519C93.5797 164.497 99.5427 164.727 101.365 165.183C102.12 164.84 103.108 165.036 103.28 165.862Z" fill="#B56233"/>
<path fill-rule="evenodd" clip-rule="evenodd" d="M87.695 111.49C85.5804 114.503 84.1187 117.675 83.0236 112.318C83.0504 111.033 81.7096 108.143 83.8932 108.325C85.1393 109.171 87.4502 109.866 87.695 111.49Z" fill="#B56233"/>
<path fill-rule="evenodd" clip-rule="evenodd" d="M158.244 116.034C161.707 119.978 160.811 119.338 155.893 120.948C154.269 120.12 155.518 112.575 158.244 116.034Z" fill="#B56233"/>
<path fill-rule="evenodd" clip-rule="evenodd" d="M91.017 139.352C89.2258 135.537 87.6651 130.676 93.6391 134.37C95.2288 135.124 91.9466 138.853 91.017 139.352Z" fill="#B56233"/>
<path fill-rule="evenodd" clip-rule="evenodd" d="M142.727 126.518C146.55 126.532 149.827 129.475 146.044 131.628C144.843 130.595 141.421 127.533 142.727 126.518Z" fill="#B56233"/>
<path fill-rule="evenodd" clip-rule="evenodd" d="M36.6917 125.844C29.0175 123.549 40.2599 119.982 38.5867 124.708C38.694 125.734 37.04 126.755 36.6917 125.844Z" fill="#B56233"/>
<path fill-rule="evenodd" clip-rule="evenodd" d="M106.843 108.513C107.014 107.154 104.646 103.959 107.081 104.045C107.959 104.679 109.989 105.096 109.694 106.461C108.431 107.472 108.648 109.65 106.843 108.513Z" fill="#B56233"/>
</g>
<g opacity="0.2">
<line x1="5.49534" y1="65.4829" x2="38.0818" y2="303.26" stroke="#6B7D76"/>
<line x1="361.734" y1="17.1663" x2="5.06786" y2="66.046" stroke="#6B7D76"/>
<line x1="45.1249" y1="60.0522" x2="77.7114" y2="297.83" stroke="#6B7D76"/>
<line x1="367.165" y1="56.7962" x2="10.4989" y2="105.676" stroke="#6B7D76"/>
<line x1="84.7545" y1="54.6206" x2="117.341" y2="292.398" stroke="#6B7D76"/>
<line x1="372.596" y1="96.426" x2="15.93" y2="145.306" stroke="#6B7D76"/>
<line x1="124.384" y1="49.1899" x2="156.971" y2="286.967" stroke="#6B7D76"/>
<line x1="378.027" y1="136.055" x2="21.3611" y2="184.935" stroke="#6B7D76"/>
<line x1="164.014" y1="43.7583" x2="196.6" y2="281.536" stroke="#6B7D76"/>
<line x1="383.458" y1="175.685" x2="26.7922" y2="224.565" stroke="#6B7D76"/>
<line x1="203.643" y1="38.3276" x2="236.23" y2="276.105" stroke="#6B7D76"/>
<line x1="388.889" y1="215.315" x2="32.2233" y2="264.194" stroke="#6B7D76"/>
<line x1="243.273" y1="32.896" x2="275.859" y2="270.673" stroke="#6B7D76"/>
<line x1="394.321" y1="254.944" x2="37.6544" y2="303.823" stroke="#6B7D76"/>
<line x1="282.902" y1="27.4653" x2="315.489" y2="265.243" stroke="#6B7D76"/>
<line x1="322.532" y1="22.0347" x2="355.118" y2="259.812" stroke="#6B7D76"/>
<line x1="362.162" y1="16.603" x2="394.748" y2="254.38" stroke="#6B7D76"/>
</g>
<path fill-rule="evenodd" clip-rule="evenodd" d="M99.7046 246.654C98.359 248.145 95.0669 255.649 93.1253 250.895C92.8658 250.088 92.4115 249.347 92.014 248.593C91.2109 248.346 90.3296 249.028 90.6752 247.478C91.0784 245.888 91.4769 244.282 91.6794 242.659C91.8422 241.354 93.6883 239.421 94.9738 239.455C95.9093 239.48 97.1074 239.069 97.7198 239.516C99.7599 241.375 99.4922 243.673 99.7046 246.654Z" fill="#FFBF5F"/>
<path fill-rule="evenodd" clip-rule="evenodd" d="M148.096 158.941C147.776 159.841 147.418 160.729 147.143 161.643C146.513 163.713 144.129 162.957 144.449 160.987C145.256 157.461 143.479 154.887 141.794 152.166C140.659 150.332 139.91 148.245 139.04 146.247C138.99 146.132 139.363 145.724 139.61 145.59C140.746 144.757 142.23 144.455 143.209 145.598C146.492 149.296 150.045 153.586 148.096 158.941Z" fill="#FFBF5F"/>
<path fill-rule="evenodd" clip-rule="evenodd" d="M125.256 256.76C125.038 258.013 124.901 258.399 124.631 259.484C123.338 258.446 121.791 258.055 120.268 257.529C117.104 255.152 113.405 253.596 109.848 251.904C109.666 251.814 109.499 251.214 109.58 251.14C112.432 248.055 115.54 248.784 118.69 250.253C121.517 251.283 124.912 253.187 125.256 256.76Z" fill="#FFBF5F"/>
<path fill-rule="evenodd" clip-rule="evenodd" d="M54.0001 199.14C54.9586 196.115 56.9074 194.787 58.9176 193.522C59.3977 194.001 59.2165 195.303 59.5991 195.891C60.1967 196.223 60.1755 196.205 59.8085 196.964C58.2702 200.144 58.354 203.415 59.0183 206.787C59.4479 208.968 59.5567 211.218 59.775 213.442C59.7885 213.58 59.4582 213.909 59.3609 213.883C58.7353 213.712 57.7312 213.625 57.5811 213.221C56.1835 208.786 53.4712 203.838 54.0001 199.14Z" fill="#FFBF5F"/>
<path fill-rule="evenodd" clip-rule="evenodd" d="M109.854 277.449C108.499 280.607 107.154 283.77 105.772 286.917C105.662 287.168 105.268 287.5 105.059 287.467C103.774 287.266 101.571 288.661 101.856 285.597C102.032 282.195 101.794 278.714 103.731 275.714C103.875 275.44 104.864 275.662 105.454 275.575C106.374 275.439 107.429 275.575 107.783 274.249C108.377 273.281 109.315 273.491 109.513 274.657C109.615 275.526 109.543 276.418 109.542 277.301C109.646 277.35 109.75 277.399 109.854 277.449Z" fill="#FFBF5F"/>
<path fill-rule="evenodd" clip-rule="evenodd" d="M112.075 198.506C112.399 199.694 112.104 199.984 112.724 200.39C114.384 200.968 115.528 202.274 115.508 203.903C115.492 205.139 114.465 206.372 113.891 207.608C113.452 208.708 112.851 209.725 112.277 210.757C111.796 210.399 110.92 210.065 110.902 209.679C110.819 207.886 109.153 208.59 108.372 207.896C107.026 206.7 105.424 203.459 106.195 201.62C108.049 200.579 109.805 199.737 112.075 198.506Z" fill="#FFBF5F"/>
<path fill-rule="evenodd" clip-rule="evenodd" d="M79.8331 226.128C80.2029 225.947 81.182 225.552 81.7823 225.721C80.7037 227.758 80.9983 227.942 82.2652 229.476C84.7624 232.435 82.4434 239.737 78.0511 237.262C77.9811 237.243 77.915 236.758 78.0013 236.688C79.3381 235.597 78.3729 234.606 77.9727 233.552C76.8404 230.581 74.0266 225.577 79.8331 226.128Z" fill="#FFBF5F"/>
<path fill-rule="evenodd" clip-rule="evenodd" d="M90.8114 178.428C89.469 181.972 86.4735 183.943 82.9957 184.766C83.401 183.556 82.7139 182.562 82.0019 181.672C85.2045 179.818 87.6284 176.557 86.2793 172.698C85.9854 171.69 87.0227 171.238 87.6693 171.53C88.7986 172.737 90.0387 173.92 90.8122 175.356C91.2414 176.152 90.8382 177.422 90.8114 178.428Z" fill="#FFBF5F"/>
<path fill-rule="evenodd" clip-rule="evenodd" d="M87.5949 267.076C86.7722 270.429 83.104 272.048 80.5084 270.458C78.9689 269.514 77.4998 268.45 76.0367 267.387C75.9585 267.33 76.1395 266.604 76.3561 266.483C77.1651 266.027 78.0491 265.713 78.8766 265.288C79.0486 265.161 78.881 264.447 78.8779 264.229C79.0349 264.033 79.2798 263.71 79.4293 263.74C80.6073 263.974 81.8305 264.139 82.9209 264.606C85.1751 265.679 85.1071 267.605 87.3918 264.791C87.8291 265.393 87.5964 266.633 87.5949 267.076Z" fill="#FFBF5F"/>
<path fill-rule="evenodd" clip-rule="evenodd" d="M127.75 294.597C126.994 298.673 124.495 299.98 121.421 300.649C119.918 300.921 118.504 301.705 116.959 301.684C116.981 298.442 120.563 299.129 121.044 296.124C121.65 293.449 123.395 290.471 126.342 292.184C127.148 292.618 127.443 294.026 127.75 294.597Z" fill="#FFBF5F"/>
<path fill-rule="evenodd" clip-rule="evenodd" d="M60.6628 130.211C61.8409 130.796 63.2116 131.157 64.159 132.008C66.5132 134.121 66.4166 134.189 64.1806 136.228C63.7561 136.622 63.8299 137.669 63.5148 138.158C59.6729 139.985 57.3486 136.464 57.0922 132.925C56.9884 131.904 59.5006 130.247 60.6628 130.211Z" fill="#FFBF5F"/>
<path fill-rule="evenodd" clip-rule="evenodd" d="M49.427 273.688C44.9004 273.065 45.3158 269.674 44.2259 265.459C43.2102 264.276 44.5145 263.709 44.7776 262.875C45.3561 263.084 46.1713 263.115 46.4708 263.533C47.5655 265.061 48.3847 266.799 49.5124 268.297C51.0736 270.135 52.7238 270.236 52.8089 273.132C51.7216 272.882 50.2693 273.264 49.427 273.688Z" fill="#FFBF5F"/>
<path fill-rule="evenodd" clip-rule="evenodd" d="M115.3 179.697C114.122 179.111 112.593 178.363 111.079 177.584C107.787 172.626 116.823 171.285 118.246 176.62C118.585 177.485 119.927 178.053 120.355 179.024C118.853 179.978 117.387 179.463 115.3 179.697Z" fill="#FFBF5F"/>
<path fill-rule="evenodd" clip-rule="evenodd" d="M94.1606 133.939C94.5206 133.981 94.3579 134.013 94.2903 133.946C93.6379 133.196 92.8891 132.529 92.1671 131.864C92.1254 131.811 92.5092 131.19 92.7477 131.147C96.5838 130.451 99.4596 132.387 100.621 136.263C101.047 137.683 101.226 139.198 101.358 140.687C101.387 141.006 100.726 141.396 100.383 141.754C99.817 138.912 96.6711 138.09 94.812 136.336C94.3557 135.931 94.4069 134.934 94.1606 133.939Z" fill="#FFBF5F"/>
<path fill-rule="evenodd" clip-rule="evenodd" d="M114.404 230.498C117.144 231.162 119.737 234.639 119.471 237.113C118.915 238.692 117.798 238.395 118.024 240.745C117.76 240.7 117.37 240.753 117.25 240.594C115.74 238.589 114.175 236.617 112.827 234.5C111.46 232.348 112.55 231.728 114.404 230.498Z" fill="#FFBF5F"/>
<path fill-rule="evenodd" clip-rule="evenodd" d="M51.9445 153.339C48.0939 158.188 51.3528 158.345 44.552 156.69C44.5163 156.681 44.491 156.358 44.5589 156.24C44.8624 155.712 44.5902 155.671 44.6342 155.419C44.8132 154.399 43.7557 153.498 44.8994 152.284C46.7389 150.331 49.0147 151.723 50.9271 150.872C51.2644 150.722 51.7644 150.96 52.1893 151.019C51.8153 152.143 51.3077 153.083 50.2527 153.675C50.8838 153.285 51.4924 152.853 52.1887 152.593C52.1399 152.743 52.091 152.892 51.9445 153.339Z" fill="#FFBF5F"/>
<path fill-rule="evenodd" clip-rule="evenodd" d="M68.0522 297.423C66.6043 296.588 65.0934 295.894 63.7915 294.913C62.5139 294.175 63.069 288.966 65.1221 290.101C66.8135 291.208 68.3728 292.619 70.2008 293.378C71.8337 294.081 70.7938 295.566 72.4379 296.052C72.3173 296.244 72.225 296.57 72.0715 296.606C70.8173 296.893 69.5516 297.126 68.0522 297.423Z" fill="#FFBF5F"/>
<path fill-rule="evenodd" clip-rule="evenodd" d="M32.9642 209.423C33.6082 209.321 34.2539 209.14 34.8954 209.147C36.1482 209.557 37.5051 210.223 38.6491 210.901C38.7671 211.8 37.8004 213.762 37.0776 214.493C35.6626 215.69 34.2329 214.803 32.8384 214.342C32.2632 214.152 31.7366 213.792 31.1536 213.65C29.7465 213.308 28.7509 211.259 29.6094 210.15C29.8345 209.859 30.6655 210.128 31.1597 209.958C31.7557 209.753 32.2894 209.354 32.8501 209.039C32.8882 209.167 32.9261 209.295 32.9642 209.423Z" fill="#FFBF5F"/>
<path fill-rule="evenodd" clip-rule="evenodd" d="M23.5753 225.288C26.1091 226.463 27.8747 228.486 27.629 231.039C27.4069 231.084 27.0782 231.14 26.9507 231.017C24.0986 227.972 22.7938 231.257 20.1761 232.622C20.0799 232.682 19.665 232.423 19.5705 232.224C19.1891 231.423 18.9042 230.573 18.5301 229.768C17.2519 226.955 21.3077 225.681 23.5753 225.288Z" fill="#FFBF5F"/>
<path fill-rule="evenodd" clip-rule="evenodd" d="M21.0426 284.458C23.1579 285.29 24.215 285.374 25.8777 283.833C26.9817 282.865 27.8766 282.973 28.2912 284.306C28.686 285.575 29.1063 287.055 28.8101 288.272C28.5097 289.507 27.0725 290.076 25.7983 289.485C24.2588 288.597 21.0678 287.382 20.4157 285.739C19.8399 284.764 20.4081 284.701 21.0426 284.458Z" fill="#FFBF5F"/>
<path fill-rule="evenodd" clip-rule="evenodd" d="M46.5861 194.669C42.0248 193.343 46.3167 184.767 51.4898 189.171C51.6659 189.356 51.8387 189.85 51.4827 189.987C49.0574 190.757 50.4894 191.579 51.267 193.19C50.5868 193.977 49.5369 193.485 48.7002 193.722C47.6915 194.547 48.0812 194.819 46.5861 194.669Z" fill="#FFBF5F"/>
<path fill-rule="evenodd" clip-rule="evenodd" d="M51.9433 233.518C52.2414 232.499 51.9563 230.744 53.0391 230.662C53.9552 231.137 54.8901 231.612 55.7044 232.241C56.689 233.001 55.8462 233.713 55.4205 234.357C53.9621 236.437 52.2137 238.305 50.5116 240.178C50.3294 240.37 49.8015 240.223 49.4336 240.233C50.1282 239.449 50.1695 238.323 50.5562 237.376C51.0022 236.139 51.4118 234.691 51.9433 233.518Z" fill="#FFBF5F"/>
<path fill-rule="evenodd" clip-rule="evenodd" d="M28.7594 191.429C32.2208 192.868 28.5608 193.21 29.3908 194.677C29.6622 195.095 29.5031 195.053 29.1728 195.295C28.0061 196.056 26.8399 196.818 25.6651 197.566C24.403 197.681 24.003 195.651 23.689 194.697C23.5224 193.606 24.6722 192.395 25.5285 192.004C26.7572 191.62 28.074 191.54 28.7594 191.429Z" fill="#FFBF5F"/>
<path fill-rule="evenodd" clip-rule="evenodd" d="M58.3574 167.456C60.77 162.516 65.3704 168.307 63.5244 171.705C62.942 172.699 61.8155 172.506 61.0057 171.63C60.142 170.695 59.2226 169.802 58.4684 168.782C58.2088 168.431 58.3737 167.752 58.3574 167.456Z" fill="#FFBF5F"/>
<path fill-rule="evenodd" clip-rule="evenodd" d="M124.676 161.449C124.019 164.71 122.996 162.873 120.88 162.371C119.398 162.104 119.668 160.992 119.544 159.91C119.157 157.392 121.604 155.446 123.328 157.696C123.935 158.777 123.282 160.139 124.539 161.075C124.637 161.21 124.66 161.402 124.676 161.449Z" fill="#FFBF5F"/>
<path fill-rule="evenodd" clip-rule="evenodd" d="M73.7329 155.068C74.7918 156.129 76.7154 156.362 76.1514 158.5C76.1555 159.047 76.8394 159.38 77.2005 159.716C76.658 160.089 76.0852 160.812 75.5782 160.773C73.6806 160.624 72.0818 159.842 71.3124 157.862C71.0708 157.241 70.6629 156.69 70.3715 156.086C70.3213 155.982 70.4523 155.65 70.5374 155.634C71.6038 155.422 72.677 155.248 73.7329 155.068Z" fill="#FFBF5F"/>
<path fill-rule="evenodd" clip-rule="evenodd" d="M106.917 153.709C106.259 155.997 104.463 156.456 103.292 155.326C102.462 154.591 101.42 154.076 100.508 153.437C100.851 153.117 101.172 152.559 101.54 152.519C104.57 152.127 104.377 150.785 105.851 148.779C106.088 149.055 106.495 149.306 106.534 149.61C106.732 151.187 106.836 152.777 106.917 153.709Z" fill="#FFBF5F"/>
<path fill-rule="evenodd" clip-rule="evenodd" d="M151.515 178.948C150.125 178.181 148.811 177.852 148.219 176.998C147.786 176.374 148.234 175.047 148.428 174.06C148.571 173.38 150.111 172.19 150.531 172.141C151.165 172.71 151.779 173.385 152.14 174.153C152.357 174.614 152.016 175.322 152.09 175.895C153.07 178.175 153.455 176.93 151.515 178.948Z" fill="#FFBF5F"/>
<path fill-rule="evenodd" clip-rule="evenodd" d="M67.5492 245.823C67.1344 246.935 67.3226 248.226 66.2916 248.404C64.6275 247.738 61.6888 247.508 61.5513 245.251C61.6237 244.673 62.3902 244.115 62.9455 243.668C65.7786 241.409 65.5409 245.391 67.5492 245.823Z" fill="#FFBF5F"/>
<path fill-rule="evenodd" clip-rule="evenodd" d="M132.156 206.344C130.977 206.967 129.659 207.418 128.666 208.268C127.919 208.907 127.597 210.101 126.33 209.308C126.14 209.189 125.974 208.873 125.972 208.645C126.231 207.664 127.135 206.722 126.456 205.695C126.343 205.127 127.148 205.032 127.486 204.738C128.403 204.172 129.998 203.792 130.877 204.094C131.659 204.49 132.103 205.577 132.678 206.376C132.798 206.657 132.665 206.816 132.343 206.762C132.28 206.623 132.218 206.484 132.156 206.344Z" fill="#FFBF5F"/>
<path fill-rule="evenodd" clip-rule="evenodd" d="M87.0922 215.265C82.5112 214.711 81.5446 210.745 82.554 206.959C82.5582 206.922 83.0558 206.85 83.093 206.921C83.7813 208.239 84.3332 209.644 85.125 210.889C85.8434 212.019 86.8546 212.95 87.6428 214.04C87.8089 214.27 87.6276 214.835 87.4783 215.192C87.4257 215.317 86.9903 215.279 87.0922 215.265Z" fill="#FFBF5F"/>
<path fill-rule="evenodd" clip-rule="evenodd" d="M24.402 252.269C24.0895 253.099 23.7769 253.93 23.4643 254.761C21.6165 253.457 20.5247 251.501 19.859 249.347C20.9436 249.204 21.0964 247.351 22.6985 247.926C24.8665 248.6 24.9344 250.449 24.6835 252.358C24.5896 252.328 24.4958 252.299 24.402 252.269Z" fill="#FFBF5F"/>
<path fill-rule="evenodd" clip-rule="evenodd" d="M72.0527 221.609C71.7471 225.608 71.0564 225.67 67.4496 225.707C66.3189 225.36 64.9508 223.591 66.2835 223.362C68.0636 223.247 69.2254 221.945 70.5319 220.865C70.8341 220.614 71.2157 220.052 71.3801 220.114C71.9116 220.316 72.3588 220.742 72.8385 221.082C72.5766 221.258 72.3146 221.433 72.0527 221.609Z" fill="#FFBF5F"/>
<path fill-rule="evenodd" clip-rule="evenodd" d="M46.4783 279.815C46.8535 280.853 47.3792 281.552 47.2396 282.072C46.9155 283.28 46.2702 284.401 45.755 285.556C45.447 285.32 44.8663 285.078 44.873 284.847C44.9475 282.372 43.0069 281.205 41.7291 279.543C43.2127 279.89 42.2612 279.049 43.6642 279.187C44.4832 279.287 45.8944 279.406 46.4783 279.815Z" fill="#FFBF5F"/>
<path fill-rule="evenodd" clip-rule="evenodd" d="M145.396 216.287C146.187 217.992 146.483 219.642 146.549 221.463C146.545 222.052 145.976 222.643 145.662 223.233C144.28 222.674 143.298 221.504 142.501 220.281C142.344 220.025 142.615 219.195 142.917 219.002C143.782 218.45 145.085 218.389 144.776 216.804C144.759 216.713 145.069 216.552 145.396 216.287Z" fill="#FFBF5F"/>
<path fill-rule="evenodd" clip-rule="evenodd" d="M15.59 277.374C15.0271 279.196 13.9993 278.075 13.3461 277.596C12.0112 276.615 10.8143 275.44 9.56923 274.335C9.42839 274.21 9.21499 273.937 9.2545 273.874C9.41906 273.61 9.63271 273.262 9.89043 273.192C14.0281 271.879 13.5235 274.934 16.3597 276.883C16.1031 277.047 15.8466 277.21 15.59 277.374Z" fill="#FFBF5F"/>
<path fill-rule="evenodd" clip-rule="evenodd" d="M140.598 193.832C142.073 194.475 142.807 195.502 142.324 197.141C141.963 198.365 141.505 199.561 141.047 200.752C140.99 200.902 140.67 200.949 140.471 201.044C140.149 199.878 140.669 198.11 139.977 197.349C138.688 195.676 141.307 195.531 139.62 193.787C139.946 193.802 140.273 193.817 140.598 193.832Z" fill="#FFBF5F"/>
<path fill-rule="evenodd" clip-rule="evenodd" d="M47.7161 137.74C46.6094 137.964 45.9733 138.296 45.4724 138.153C44.4049 137.847 43.374 137.355 42.4127 136.791C41.8289 135.474 43.3714 134.783 44.4476 134.488C46.3117 134.792 46.5754 135.867 47.7161 137.74Z" fill="#FFBF5F"/>
<path fill-rule="evenodd" clip-rule="evenodd" d="M54.2871 121.343C52.0471 121.379 49.1122 121.892 49.5057 118.791C49.5894 118.256 49.3736 117.756 49.2122 117.261C51.0006 117.489 52.2871 118.933 53.7397 119.892C53.9681 120.068 53.9905 120.521 54.2871 121.343Z" fill="#FFBF5F"/>
<path fill-rule="evenodd" clip-rule="evenodd" d="M98.3131 194.473C99.5697 194.849 100.785 197.675 100.058 198.571C99.3486 199.446 98.8229 198.763 98.2109 198.136C97.26 197.228 96.0066 196.584 94.87 195.901C95.0586 195.623 95.204 195.161 95.4437 195.1C96.3464 194.775 97.5055 194.989 98.3131 194.473Z" fill="#FFBF5F"/>
<path fill-rule="evenodd" clip-rule="evenodd" d="M103.68 301.679C101.253 302.364 99.5538 302.054 97.2007 302.395C98.0966 300.692 99.7565 298.77 101.864 299.806C102.421 300.086 102.795 300.742 103.68 301.679Z" fill="#FFBF5F"/>
<path fill-rule="evenodd" clip-rule="evenodd" d="M131.579 237.03C130.668 236.122 129.219 234.798 130.7 233.587C131.78 232.937 132.564 231.243 133.817 231.139C133.759 232.448 132.95 233.623 132.458 234.818C132.746 234.499 132.965 234.097 133.312 233.845C133.031 234.837 132.724 235.827 132.362 236.79C132.305 236.938 131.885 236.943 131.579 237.03Z" fill="#FFBF5F"/>
<path fill-rule="evenodd" clip-rule="evenodd" d="M38.5288 229.162C38.0491 227.731 37.685 226.22 37.9351 224.702C37.9796 224.413 38.5224 224.197 38.8382 223.948C40.0132 225.685 39.8546 226.822 41.7182 228.213C40.9344 228.88 40.1415 229.056 39.1663 228.779C38.9538 228.907 38.7413 229.034 38.5288 229.162Z" fill="#FFBF5F"/>
<path fill-rule="evenodd" clip-rule="evenodd" d="M41.8504 249.52C42.2012 251.718 40.6085 252.195 39.1088 252.466C38.5657 252.563 37.8875 251.832 37.271 251.479C38.2533 250.761 39.3839 250.21 40.2983 249.416C40.5601 248.75 40.044 248.307 40.763 247.381C41.3576 247.977 41.6727 248.696 41.8504 249.52Z" fill="#FFBF5F"/>
<path fill-rule="evenodd" clip-rule="evenodd" d="M23.4369 274.25C24.2296 273.748 25.2597 273.08 26.3143 272.455C26.4093 272.399 26.7083 272.586 26.822 272.733C26.1357 274.484 25.1477 276.31 24.1315 277.928C23.0088 276.76 23.2529 276.059 23.4369 274.25Z" fill="#FFBF5F"/>
<path fill-rule="evenodd" clip-rule="evenodd" d="M100.987 221.091C100.366 223.896 99.8206 222.102 99.2986 221.945C98.2916 221.937 98.3502 221.814 97.7442 221.081C95.8133 219.276 97.5708 219.103 98.7801 218.735C99.0066 218.666 99.4219 218.742 99.5427 218.909C100.163 219.764 100.715 220.671 100.987 221.091Z" fill="#FFBF5F"/>
<path fill-rule="evenodd" clip-rule="evenodd" d="M67.1245 284.863C68.4037 284.16 68.5278 284.81 69.5444 285.434C69.5888 285.233 69.6333 285.031 69.6776 284.829C69.849 285.685 70.4915 286.064 71.2386 286.276C71.2851 286.415 71.2899 286.692 71.216 286.734C70.4338 287.178 69.6348 287.89 68.8361 287.904C68.2597 287.915 67.6275 287.03 67.1246 286.45C66.9559 286.256 67.109 285.77 67.1245 284.863Z" fill="#FFBF5F"/>
<path fill-rule="evenodd" clip-rule="evenodd" d="M59.1512 251.871C58.1677 255.368 54.3106 254.344 55.6538 251.949C56.4886 251.546 57.4368 251.337 58.3602 251.217C58.626 251.182 58.9545 251.698 59.1512 251.871Z" fill="#FFBF5F"/>
<path fill-rule="evenodd" clip-rule="evenodd" d="M123.6 142.223C122.905 143.701 122.958 144.981 121.26 145.067C120.962 141.846 119.26 139.854 123.6 142.223Z" fill="#FFBF5F"/>
<path fill-rule="evenodd" clip-rule="evenodd" d="M130.349 270.175C131.755 270.548 132.554 271.32 132.48 272.846C132.475 272.965 132.286 273.188 132.269 273.18C131.321 272.721 129.567 273.523 129.63 271.464C129.623 270.835 128.929 270.578 128.551 270.183C129.15 270.18 129.749 270.178 130.349 270.175Z" fill="#FFBF5F"/>
<path fill-rule="evenodd" clip-rule="evenodd" d="M82.9405 284.528C82.4726 285.74 82.1316 286.964 82.1085 288.235C81.2491 288.158 80.7392 286.933 80.2471 286.295C80.1605 286.146 80.5336 285.74 80.6549 285.435C80.9627 284.425 82.0822 283.649 82.9405 284.528Z" fill="#FFBF5F"/>
<path fill-rule="evenodd" clip-rule="evenodd" d="M37.6819 174.782C36.5478 175.789 36.2966 175.763 35.6528 174.525C35.7817 173.881 36.4559 173.017 36.6012 172.29C37.1272 172.391 37.353 174.124 37.6819 174.782Z" fill="#FFBF5F"/>
<path fill-rule="evenodd" clip-rule="evenodd" d="M65.8015 183.128C66.5533 183.843 67.2013 184.46 67.8494 185.076C67.5777 185.151 67.2215 185.375 67.0491 185.275C66.3128 184.847 65.631 184.323 64.9292 183.834C65.1127 183.685 65.2962 183.537 65.8015 183.128Z" fill="#FFBF5F"/>
<path fill-rule="evenodd" clip-rule="evenodd" d="M91.7005 154.921C90.7907 154.531 89.7458 154.495 88.8907 153.985C90.5928 152.706 90.7716 152.675 92.0042 154.441C91.9029 154.601 91.8017 154.761 91.7005 154.921Z" fill="#FFBF5F"/>
<path fill-rule="evenodd" clip-rule="evenodd" d="M108.338 263.025C108.008 262.712 107.849 262.561 107.69 262.41C108.295 262.075 108.882 261.68 109.525 261.461C109.635 261.423 109.983 262.136 110.221 262.502C109.577 262.681 108.933 262.86 108.338 263.025Z" fill="#FFBF5F"/>
<path fill-rule="evenodd" clip-rule="evenodd" d="M65.5095 185.474C65.3095 185.556 65.1845 185.608 65.0595 185.66C65.0404 185.303 64.7556 184.884 64.9517 184.563C65.1247 184.846 65.2979 185.128 65.5095 185.474Z" fill="#FFBF5F"/>
<rect x="82" y="3" width="240" height="320" fill="white"/>
<rect x="82" width="240" height="33" fill="#103C29"/>
<g clip-path="url(#clip1)">
<path fill-rule="evenodd" clip-rule="evenodd" d="M269.036 304.543C269.061 304.525 269.065 304.521 269.033 304.51L269.036 304.543ZM314.834 305.126C315.098 304.648 314.718 304.801 314.37 305.076C314.512 305.325 315.035 305.631 314.834 305.126ZM287.178 312.716C286.765 312.36 286.164 312.651 285.658 312.593C286.027 313.11 286.602 312.714 287.178 312.716ZM290.379 312.69C290.835 312.568 291.306 312.947 291.731 312.58C291.499 312.386 290.006 312.455 290.379 312.69ZM331.039 290.425C330.596 289.843 329.21 291.182 329.304 291.567C329.875 291.192 330.445 290.816 331.039 290.425ZM295.439 313.503C301.704 313.708 309.023 313.071 314.188 309.785C307.029 310.098 299.816 312.235 292.611 312.497C294.809 312.929 295.615 311.567 295.439 313.503ZM320.824 293.945C321.233 293.872 321.132 292.931 321.829 293.347C322.037 292.77 322.926 292.505 322.594 291.663C322.568 291.597 322.792 291.43 322.899 291.309C327.056 288.648 330.92 283.42 335.074 279.727C337.906 277.17 341.215 275.213 344.039 272.617C348.931 267.902 361.956 265.059 362.961 263.091C343.887 263.78 321.604 284.484 320.824 293.945ZM345.791 282.108C351.841 278.422 357.457 274.148 361.985 268.582C352.665 275.417 341.999 281.391 333.51 289.049C335.213 288.23 336.462 286.44 338.531 286.481C340.306 284.411 343.301 282.245 345.791 282.108ZM265.773 310.143C260.277 310.099 283.532 314.585 284.727 312.712C280.821 310.34 263.772 307.482 265.773 310.143ZM290.444 321.076C296.676 321.51 307.179 319.418 310.51 316.228C293.558 321.002 275.75 319.111 260.634 309.587C261.315 310.324 259.076 309.449 260.429 310.195C260.487 310.723 261.011 310.121 261.324 310.568C260.621 311.197 260.421 310.613 259.75 310.498C259.744 311.055 261.053 311.373 261.534 311.082C262.269 310.31 263.132 311.711 262.02 311.662C267.837 316.796 276.65 318.802 284.166 320.378L284.163 320.377C286.376 320.832 288.262 320.962 290.444 321.076ZM324.908 293.01C324.393 292.365 320.624 294.228 321.397 295.711C321.99 296.399 324.813 293.876 325.676 293.536C326.028 293.571 326.541 293.372 326.61 293.03C325.973 293.314 325.475 293.549 324.908 293.01ZM327.081 292.86C327.22 292.765 327.668 292.772 327.491 292.563C327.32 292.691 326.674 293.141 327.081 292.86ZM296.046 322.776C288.922 327.802 250.46 316.53 261.658 308.352C262.419 308.964 262.272 307.701 262.785 307.802C263.303 307.487 263.881 307.255 264.3 306.804C262.746 306.706 265.181 305.935 265.602 305.572C265.994 305.715 265.268 306.132 265.802 306.184C266.247 306.217 266.601 305.93 266.882 305.584C266.454 305.468 266.45 305.201 266.787 304.962C267.504 305.248 269.026 305.023 268.614 304.32C279.596 298.014 307.35 293.628 316.291 307.484C318.135 298.282 321.319 287.713 322.615 277.952C322.595 277.258 323.102 275.59 324.002 276.247C323.834 279.273 322.299 282.715 322.734 285.513C323.015 285.819 322.984 285.152 323.245 285.32C323.15 285.771 323.055 286.223 322.961 286.674C332.026 273.895 354.59 255.039 368.901 263.601C359.785 286.615 345.579 284.699 328.213 298.178C325.599 297.841 323.302 299.331 320.75 298.367C318.701 298.262 318.914 299.872 318.492 301.91C318.16 303.731 317.13 306.095 317.895 307.769C317.447 308.682 319.148 309.184 318.165 310.226C316.707 311.759 315.66 314.119 316.815 316.041C317.587 315.073 319.007 314.461 320.151 314.232C315.812 318.295 315.862 314.601 314.694 321.251C314.288 317.817 315.52 312.039 316.345 307.929C312.772 321.666 306.222 318.983 296.046 322.776Z" fill="#103C29"/>
<path fill-rule="evenodd" clip-rule="evenodd" d="M333.286 225.041C332.933 225.442 332.774 226.032 333.116 226.486C333.498 226.253 333.196 225.565 333.286 225.041ZM333.472 231.25C333.068 227.941 332.811 232.851 332.814 233.9C333.316 233.15 333.245 231.969 333.472 231.25ZM308.735 194.817C312.078 187.934 327.752 205.533 328.792 210.765C326.257 197.703 331.474 182.783 341.952 174.343C347.101 169.9 340.101 193.031 341.562 196.497C342.077 200.586 341.142 204.604 339.903 208.453C338.417 212.581 339.22 217.315 336.622 220.935C335.242 222.696 335.054 226.181 335.014 228.46C335.324 229.134 336.065 228.105 335.913 229.613C332.757 231.245 332.775 239.046 330.807 243.888C330.774 240.008 328.023 236.816 327.057 233.309C328.547 235.215 329.204 237.716 330.659 239.619C326.461 229.317 320.954 219.474 316.504 209.288C311.946 202.948 316.436 201.123 308.735 194.817Z" fill="#FFBF5F"/>
<path fill-rule="evenodd" clip-rule="evenodd" d="M370.715 221.33C370.728 221.247 370.584 221.307 370.63 221.368C370.659 221.356 370.687 221.344 370.715 221.33ZM369.823 222.814C369.646 222.825 369.808 222.931 369.914 222.863C369.884 222.847 369.854 222.831 369.823 222.814ZM356.01 226.095C356.006 226.046 356.004 226.014 356.001 225.981C355.79 225.97 355.801 226.126 356.01 226.095ZM374.502 217.374C374.414 217.278 374.402 217.216 374.288 217.273C374.31 217.42 374.35 217.407 374.502 217.374ZM372.217 220.847C371.955 220.691 371.941 220.602 371.712 220.699C371.91 220.817 371.919 220.817 372.217 220.847ZM376.355 216.304C376.243 216.337 376.166 216.36 376.089 216.383C376.199 216.574 376.543 216.545 376.355 216.304ZM373.354 216.573C373.576 216.488 373.852 216.451 373.607 216.264C373.457 216.32 373.249 216.363 373.354 216.573ZM383.209 205.643C383.001 205.203 382.661 205.519 382.312 205.532C382.573 205.908 382.81 205.772 383.209 205.643ZM356.64 226.281C357.53 225.86 356.974 225.672 356.291 225.91C356.4 226.026 356.509 226.142 356.64 226.281ZM384.809 202.745C383.329 203.093 383.961 204.172 384.84 202.916C384.861 202.896 384.822 202.813 384.809 202.745ZM383.685 205.004C383.663 204.388 383.092 204.855 382.702 204.911C383.015 205.117 383.472 205.598 383.685 205.004ZM371.234 220.486C371.894 219.93 370.514 220.548 370.306 220.656C370.79 221.27 370.844 220.786 371.234 220.486ZM376.303 215.798C375.967 215.605 375.46 215.224 375.218 215.627C375.105 216.339 375.841 216.049 376.303 215.798ZM342.502 227.627C342.35 230.851 350.764 222.29 352.245 221.142C348.471 221.343 344.904 224.724 342.502 227.627ZM385.277 201.134C381.45 202.741 375.288 203.836 373.55 208.387C378.081 207.334 381.555 204.443 385.277 201.134ZM349.533 213.734C351.636 208.792 337.119 228.504 342.761 225.122C342.673 225.653 342.339 226.177 342.373 226.706C348.278 214.629 358.994 206.458 370.929 201.255C363.725 202.285 355.801 203.437 351.842 210.614C359.178 203.862 352.582 210.278 349.533 213.734ZM370.312 210.42C373.528 207.713 367.608 210.572 366.538 210.747C361.547 213.578 356.833 216.941 352.756 220.815C358.662 217.533 364.941 214.462 370.312 210.42ZM382.143 200.197C383.586 200.355 383.652 200.06 382.21 199.877C382.905 199.93 382.846 198.986 382.143 199.164C380.424 200.143 374.529 198.458 374.98 200.349C374.228 200.168 372.048 201.366 373.744 201.373C376.456 200.579 380.328 201.435 382.143 200.197ZM371.315 221.352C371.181 221.361 371.003 221.29 371.128 221.475C371.296 221.381 371.66 221.107 371.315 221.352ZM373.019 221.321C372.686 221.812 371.865 221.4 372.006 222.185C371.062 221.647 370.331 223.555 369.384 223.261C369.18 223.443 369.059 223.629 369.366 223.825C369.334 224.279 369.117 223.74 368.936 223.59C365.621 228.29 357.516 228.504 352.577 231.484C336.229 233.971 344.409 223.776 334.96 241.237C334.445 237.052 339.088 234.58 339.415 230.587C340.44 229.45 341.138 230.046 340.925 229.506C340.264 227.698 340.116 225.208 340.992 223.618C341.969 223.718 341.476 222.711 341.856 222.289C346.185 214.214 350.381 204.609 359.747 201.575C362.547 199.34 391.902 194.679 388.807 200.469C387.372 206.112 382.9 214.02 377.97 215.944C377.878 216.521 376.236 215.831 377.007 217.129C377.014 217.397 376.796 217.437 376.579 217.291C376.974 217.271 376.618 216.997 376.405 216.971C376.855 217.815 375.339 216.288 374.866 216.362C374.304 216.25 375.309 216.834 374.72 216.811C373.667 216.548 375.161 217.216 375.426 217.502C375.942 218.204 375.132 217.983 375.039 217.917C374.467 217.408 374.552 218.445 373.015 218.373C374.571 218.786 376.199 217.811 374.031 220.207C373.399 220.682 372.421 219.426 371.927 220.309C372.317 220.472 373.312 221.056 372.432 221.199C372.321 221.176 371.769 220.926 371.974 221.239C372.219 221.588 372.888 221.104 373.019 221.321Z" fill="#103C29"/>
<path fill-rule="evenodd" clip-rule="evenodd" d="M282.947 252.874C283.193 252.664 282.842 252.322 282.711 252.136C281.932 252.093 282.636 252.54 282.947 252.874ZM311.37 256.537C311.782 256.649 312.082 256.559 312.065 256.353C312.003 255.599 311.048 256.49 310.916 255.773C310.455 255.963 311.324 256.388 311.37 256.537ZM279.166 259.87C286.217 259.83 270.571 252.588 266.49 252.852C270.224 255.929 274.152 259.004 279.166 259.87ZM292.247 250.83C298.301 251.07 304.097 257.229 310.337 255.273C308.777 251.589 283.802 249.248 292.247 250.83ZM319.78 262.759C319.856 262.707 319.931 262.655 320.007 262.603C319.929 262.66 319.851 262.717 319.774 262.773C319.788 262.765 319.815 262.764 319.78 262.759ZM272.988 249.796C271.904 252.551 286.135 251.98 289.605 251.111C289.276 249.883 288.264 250.829 287.544 250.696C285.205 250.265 282.852 249.966 280.467 249.988C280.224 248.924 278.668 249.781 278.178 249.537C277.341 249.111 277.286 250.098 276.351 249.716C278.294 248.96 274.398 249.477 273.794 249.635L273.814 249.636C273.669 249.587 273.638 249.616 273.631 249.673C273.683 250.139 273.217 249.503 272.988 249.796ZM320.703 261.841C319.87 259.855 311.51 261.148 307.768 262.319C311.355 265.542 316.944 264.19 320.703 261.841ZM322.431 259.661C323.521 264.311 316.443 263.965 318.008 264.906C316.348 265.539 317.372 263.876 315.176 265.121C313.09 265.699 311.352 265.989 309.417 265.104C304.266 256.372 281.764 251.364 289.432 256.712C283.49 253.282 289.219 266.154 282.992 263.286C264.656 256.278 255.363 249.918 279.371 240.8C296.251 236.389 315.005 242.333 322.431 259.661Z" fill="#103C29"/>
<path fill-rule="evenodd" clip-rule="evenodd" d="M352.838 231.531C360.443 227.619 370.298 225 378.431 226.472C376.42 225.96 377.481 226.515 376.321 226.942C377.164 227.455 378.004 226.223 378.925 226.495C379.03 226.969 378.453 226.912 378.358 227.231C373.626 227.64 374.245 230.593 371.205 230.628C365.998 231.797 362.259 237.143 358.241 240.526C358.074 244.303 328.717 264.577 338.789 259.991C338.005 260.948 336.776 261.722 335.972 262.121C333.953 261.201 331.733 267.199 332.235 263.296C328.725 266.228 332.021 257.952 330.758 256.182C331.85 256.159 331.145 254.841 331.764 254.243C335.016 243.569 345.279 236.596 352.838 231.531Z" fill="#FFBF5F"/>
<path fill-rule="evenodd" clip-rule="evenodd" d="M336.405 261.993C341.928 259.306 348.969 260.235 354.788 258.756C348.688 257.33 335.498 262.348 346.921 255.165C352.156 251.127 360.216 252.806 366.485 250.899C361.67 250.47 356.683 250.825 351.955 252.021C351.71 252.092 351.008 252.412 350.919 251.631C358.671 242.684 363.689 247.783 373.125 243.713C370.609 242.218 363.912 243.767 360.398 244.436C357.172 245.295 361.553 242.556 362.125 241.716C364.856 239.352 368.081 238.34 371.732 237.775C373.204 237.242 376.527 237.648 377.212 236.028C374.628 234.932 371.264 237.144 368.412 236.751C371.474 232.425 378.949 231.7 380.729 226.758C382.504 226.422 381.394 232.126 380.805 233.062C376.44 252.292 355.673 266.879 336.477 264.562C332.151 264.626 333.089 263.369 336.405 261.993Z" fill="#B56233"/>
<path fill-rule="evenodd" clip-rule="evenodd" d="M329.693 250.905C328.592 251.979 328.426 250.696 328.261 250.201C321.062 242.379 310.415 240.58 307.543 227.286C304.914 218.54 304.043 209.239 305.726 200.214C309.025 204.49 313.158 208.468 316.038 212.989L316.035 212.98C316.115 213.15 316.195 213.321 316.275 213.491C323.796 228.033 311.207 208.695 305.962 205.451C305.688 207.074 306.133 207.892 307.908 208.354C313.633 214.638 319.922 219.421 321.674 227.277C317.426 222.419 311.822 219.071 306.996 214.889C306.715 214.232 306.022 214.86 306.37 215.383C313.591 222.71 324.937 227.021 327.084 238.326L327.073 238.309C331.138 246.379 312.089 224.261 308.579 226.646C316.024 233.244 331.009 238.935 329.693 250.905Z" fill="#B56233"/>
<path fill-rule="evenodd" clip-rule="evenodd" d="M285.939 263.242C286.759 261.036 285.132 253.794 289.5 256.794C287.259 260.507 304.315 276.515 306.577 281.114L306.569 281.101C309.798 285.423 312.22 292.106 316.489 294.255C316.647 294.537 316.776 295.784 316.183 295.252C315.571 293.965 315.579 295.856 315.115 295.477C314.933 296.457 316.019 296.732 316.584 297.16C315.815 299.082 318.332 298.769 317.128 301.804C316.134 301.141 315.73 296.063 314.704 297.697C300.825 296.784 286.596 278.363 285.939 263.242Z" fill="#FFBF5F"/>
<path fill-rule="evenodd" clip-rule="evenodd" d="M350.781 306.18C350.871 306.185 350.938 306.19 351.005 306.194C350.906 306.086 350.534 306.02 350.781 306.18ZM351.115 306.687C350.701 306.485 350.693 306.542 350.348 306.62C350.534 306.876 350.687 306.688 351.115 306.687ZM315.845 317.137C315.711 316.944 315.489 316.647 315.94 316.672C318.38 317.1 319.571 312.952 321.295 314.65C327.36 314.1 333.386 312.344 339.478 312.513C339.032 312.217 338.016 312.438 338.002 311.777C338.309 311.616 339.733 312.363 338.905 311.738C343.524 309.922 323.637 313.551 322.921 312.889C330.207 306.381 339.704 306.664 348.956 306.512C350.241 305.902 347.682 306.605 347.122 306.089C346.932 305.032 349.778 306.05 350.353 305.494C345.037 304.004 339.166 305.802 333.794 305.44C336.145 303.964 338.709 302.112 341.215 301.078C345.063 299.921 354.116 301.737 355.791 298.745C353.25 297.523 349.432 298.609 347.298 297.779C351.304 293.061 359.918 296.604 363.078 293.005C361.683 293.029 360.042 292.232 359.189 293.843C359.422 292.358 357.639 293.059 356.709 292.78C359.941 290.58 364.006 289.895 367.328 287.782C360.41 305.474 335.974 322.313 315.845 317.137Z" fill="#B56233"/>
<path fill-rule="evenodd" clip-rule="evenodd" d="M328.213 298.178C335.902 293.102 343.26 287.269 352.35 284.928C355.16 284.247 365.482 282.771 363.766 285.549C362.207 286.929 355.937 287.847 354.87 290.761C354.13 292.532 352.493 291.272 351.298 292.069C348.352 294.627 344.4 294.885 341.37 297.242C333.418 303.532 323.845 309.174 316.816 316.042C315.044 309.036 324.51 302.939 328.213 298.178Z" fill="#FFBF5F"/>
<path fill-rule="evenodd" clip-rule="evenodd" d="M293.635 260.63C293.646 260.712 293.677 260.732 293.756 260.707C293.732 260.637 293.721 260.558 293.635 260.63ZM303.049 259.737C314.315 266.288 321.227 281.879 317.849 295.508C314.199 289.44 314.896 281.554 313.232 275.068C312.011 278.723 313.599 282.882 313.284 286.653C306.469 280.292 308.857 273.484 306.406 265.726C304.608 267.254 307.062 274.535 306.674 277.423C301.488 272.645 301.204 265.556 298.788 259.404C296.789 260.22 298.839 266.982 299.255 268.779C297.931 267.888 296.939 266.512 296.232 265.121C296.355 263.656 293.99 256.542 294.515 261.931C294.215 261.236 293.764 260.401 293.74 261.697C292.048 260.351 291.129 258.341 289.603 256.946L289.615 256.964C282.563 251.41 301.407 256.653 303.047 259.735C302.006 259.677 301.642 258.297 300.559 258.412C301.641 259.141 304.856 262.057 303.049 259.737Z" fill="#B56233"/>
<path fill-rule="evenodd" clip-rule="evenodd" d="M352.9 195.975C352.821 194.3 352.466 194.705 352.758 196.158C352.795 196.11 352.832 196.062 352.9 195.975ZM349.936 187.501C347.639 186.8 345.145 195.34 345.875 198.114C347.559 193.514 350.316 189.289 351.528 185.444C350.881 185.902 350.083 186.616 349.936 187.501ZM351.719 206.427C347.685 211.325 344.516 216.832 341.77 222.572C341.137 224.441 338.417 225.878 336.744 227.456C338.745 223.047 339.389 217.975 341.539 213.688C343.826 209.301 348.029 206.28 349.681 201.593C350.119 201.853 349.563 202.315 349.704 202.549C350.582 201.941 351.151 200.489 352.087 199.717C352.76 198.841 351.105 199.214 352.105 198.072C352.183 195.886 343.689 207.908 342.16 208.583C342.262 205.993 346.962 197.834 342.681 203.297C342.171 195.04 349.952 184.603 348.323 177.839C344.359 190.03 343.841 194.588 344.928 178.185C343.848 178.085 345.005 175.542 344.295 174.58C345.012 173.495 348.584 174.534 348.751 175.907C352.476 185.67 354.865 196.093 351.719 206.427Z" fill="#B56233"/>
<path fill-rule="evenodd" clip-rule="evenodd" d="M298.598 259.947C298.407 260.042 298.48 260.13 298.491 260.287C298.667 260.209 298.64 260.143 298.598 259.947ZM298.806 261.132C298.538 260.519 298.318 260.697 298.603 261.229C298.658 261.202 298.713 261.176 298.806 261.132ZM298.807 261.326C298.591 261.733 298.628 261.789 298.731 262.14C299.001 261.863 298.899 261.77 298.807 261.326ZM299.255 268.779C298.841 266.995 296.788 260.216 298.787 259.404C300.256 263.37 301.453 267.629 302.394 271.903C310.753 284.15 303.679 268.391 306.405 265.726C307.981 267.43 306.851 271.641 307.739 274.012C309.281 281.403 308.169 280.568 313.284 286.653C313.46 283.05 312.421 279.465 312.951 275.819C312.919 275.127 313.557 274.683 313.534 275.563C314.513 282.438 314.504 289.463 317.85 295.508C317.033 296.903 315.42 297.692 315.114 295.477C320.649 295.184 301.439 272.73 299.255 268.779Z" fill="#103C29"/>
<path fill-rule="evenodd" clip-rule="evenodd" d="M329.693 250.905C331.223 238.522 315.159 233.454 308.477 226.159C318.169 230.373 325.66 238.731 330.258 244.018C329.887 244.119 330.334 244.601 330.088 244.572C329.203 244.395 329.982 246.131 330.008 244.814C331.137 246.2 329.563 245.064 330.063 246.826C331.443 243.057 332.385 236.78 333.939 232.323C333.946 232.004 334.147 232.34 334.225 232.457C334.249 235.923 334.579 229.732 335.913 229.613C335.919 229.852 336.434 229.6 336.261 229.904C335.333 231.533 335.581 237.864 333.953 236.286C334.242 232.766 330.577 247.102 331.394 249.453C328.338 256.036 328.207 265.341 324.604 272.2C325.576 265.008 328.389 258.095 329.693 250.905Z" fill="#103C29"/>
<path fill-rule="evenodd" clip-rule="evenodd" d="M363.025 293.042C359.893 296.585 351.27 293.074 347.299 297.779C349.442 298.605 353.241 297.527 355.791 298.744C353.149 302.405 342.867 298.793 338.161 302.552C342.153 300.318 370.936 282.064 367.329 287.78C364.006 289.895 359.941 290.579 356.709 292.78C357.638 293.061 359.423 292.354 359.189 293.842C360.026 292.299 361.636 292.93 363.025 293.042Z" fill="#103C29"/>
<path fill-rule="evenodd" clip-rule="evenodd" d="M305.832 199.715C306.606 198.479 306.599 193.371 308.541 194.884C309.404 199.242 312.557 203.033 313.654 207.466C311.289 204.694 308.734 202.018 305.832 199.715Z" fill="#B56233"/>
<path fill-rule="evenodd" clip-rule="evenodd" d="M380.729 226.757C380.69 229.154 377.856 229.758 376.338 231.102C379.95 228.113 376.237 229.888 375.192 231.464C373.489 233.017 370.161 234.584 368.412 236.751C371.263 237.145 374.629 234.932 377.211 236.027C376.526 237.648 373.203 237.241 371.732 237.775C368.087 238.34 364.86 239.347 362.134 241.711C364.33 239.079 367.638 237.679 369.639 234.826C371.015 233.141 380.987 228.338 378.359 227.231C378.923 226.557 379.789 225.963 380.729 226.757Z" fill="#103C29"/>
<path fill-rule="evenodd" clip-rule="evenodd" d="M328.861 265.462C328.317 267.33 327.673 269.269 327.47 271.194C329.026 269.734 329.516 267.031 331.699 266.107C328.72 270.641 326.561 275.627 324.749 280.759C324.313 276.816 326.437 272.302 327.027 267.844C327.084 266.839 327.417 265.052 328.861 265.462Z" fill="#103C29"/>
<path fill-rule="evenodd" clip-rule="evenodd" d="M305.832 199.714C310.157 203.214 314.121 207.062 315.833 212.478C312.946 208.036 308.003 204.207 305.832 199.714Z" fill="#103C29"/>
<path fill-rule="evenodd" clip-rule="evenodd" d="M327.09 261.824C326.862 262.414 325.94 262.462 325.768 263.094C324.579 264.428 321.324 256.858 320.256 255.492C322.616 257.203 325.386 259.162 327.09 261.824Z" fill="#FFBF5F"/>
<path fill-rule="evenodd" clip-rule="evenodd" d="M324.748 280.759C326.676 275.979 328.152 270.905 331.453 266.842C328.827 271.253 320.42 294.911 324.748 280.759Z" fill="#FFBF5F"/>
<path fill-rule="evenodd" clip-rule="evenodd" d="M376.009 217.824C375.915 217.698 376.013 217.919 376.01 217.989C376.099 217.968 376.017 217.884 376.009 217.824ZM372.801 220.804C370.767 219.564 373.309 220.373 374.031 220.208C374.59 219.53 375.769 218.596 374.434 218.251C374.072 216.881 376.043 218.868 375.426 217.503C375.161 217.215 373.666 216.549 374.72 216.811C375.31 216.835 374.304 216.25 374.866 216.362C375.453 216.276 376.776 217.959 377.007 217.129C376.237 215.831 377.878 216.522 377.97 215.944C379.229 216.323 378.698 214.056 380.136 214.861C377.778 217.023 375.025 221.113 371.975 221.24C371.883 220.764 372.772 221.68 372.832 220.768C372.822 220.78 372.811 220.792 372.801 220.804Z" fill="#B56233"/>
<path fill-rule="evenodd" clip-rule="evenodd" d="M314.854 317.402C314.569 318.779 314.581 320.523 314.337 321.701C313.211 328.622 310.712 324.586 312.296 320.187C311.706 326.471 314.7 320.562 314.215 317.416C314.164 316.713 314.634 317.724 314.854 317.402Z" fill="#FFBF5F"/>
<path fill-rule="evenodd" clip-rule="evenodd" d="M328.861 265.462C328.072 265 327.879 265.928 327.368 266.11C327.701 264.771 328.081 263.446 328.37 262.098C326.686 265.637 329.566 254.519 329.742 258.233C328.998 260.429 328.485 266.028 329.833 260.916C329.895 262.514 329.879 264.095 328.861 265.462Z" fill="#FFBF5F"/>
<path fill-rule="evenodd" clip-rule="evenodd" d="M329.832 260.916C327.759 266.996 330.304 255.076 331.106 252.303C331.791 253.187 330.808 255.423 330.538 257.145C330.539 257.145 330.551 257.104 330.551 257.104C330.312 258.375 330.072 259.645 329.832 260.916Z" fill="#103C29"/>
<path fill-rule="evenodd" clip-rule="evenodd" d="M344.295 174.579C344.988 176.228 343.928 178.673 344.927 178.185C345.268 178.758 344.505 180.323 344.473 181.229C344.196 180.012 343.259 174.675 344.295 174.579Z" fill="#103C29"/>
<path fill-rule="evenodd" clip-rule="evenodd" d="M335.972 262.121C329.362 265.789 337.179 263.564 338.978 264.949C335.515 265.63 329.57 263.851 335.972 262.121Z" fill="#103C29"/>
<path fill-rule="evenodd" clip-rule="evenodd" d="M368.49 286.312C365.936 286.387 366.945 286.707 365.581 284.372C366.506 284.351 368.894 285.099 368.49 286.312Z" fill="#B56233"/>
<path fill-rule="evenodd" clip-rule="evenodd" d="M329.097 268.766C326.571 273.542 327.964 268.518 328.629 266.098C328.249 267.084 329.485 267.779 329.097 268.766Z" fill="#FFBF5F"/>
<path fill-rule="evenodd" clip-rule="evenodd" d="M322.614 277.952C322.461 280.643 321.26 283.182 320.416 285.93C320.773 283.226 321.714 280.542 322.614 277.952Z" fill="#FFBF5F"/>
<path fill-rule="evenodd" clip-rule="evenodd" d="M325.298 267.408C325.1 270.067 322.986 273.635 324.002 276.247C323.608 275.991 323.283 276.029 323.052 276.472C323.564 273.401 324.198 270.354 325.298 267.408Z" fill="#FFBF5F"/>
<path fill-rule="evenodd" clip-rule="evenodd" d="M290.716 239.73C290.333 240.229 289.11 239.911 289.7 239.317C291.309 239.505 293.292 239.145 294.449 239.891C293.753 239.999 293.02 239.526 292.351 240.034C291.788 239.229 290.871 240.738 290.716 239.73Z" fill="#B56233"/>
<path fill-rule="evenodd" clip-rule="evenodd" d="M309.74 197.889C308.99 197.193 308.124 195.634 308.735 194.817C309.733 195.543 309.355 196.806 309.74 197.889Z" fill="#103C29"/>
<path fill-rule="evenodd" clip-rule="evenodd" d="M296.046 322.776C296.072 322.34 298.722 321.625 298.839 322.01C299.128 321.398 299.664 321.464 300.193 321.51C299.882 322.624 297.167 322.253 296.046 322.776Z" fill="#B56233"/>
<path fill-rule="evenodd" clip-rule="evenodd" d="M365.582 284.371C365.996 285.471 364.476 285.211 363.766 285.549C363.654 284.585 364.95 284.527 365.582 284.371Z" fill="#103C29"/>
<path fill-rule="evenodd" clip-rule="evenodd" d="M268.127 304.263C268.261 304.321 268.724 304.291 268.526 304.487C269.29 304.837 267.237 305.329 266.787 304.962C267.174 304.614 267.462 304.073 268.127 304.263Z" fill="#B56233"/>
<path fill-rule="evenodd" clip-rule="evenodd" d="M369.384 223.261C370.331 223.556 371.062 221.647 372.006 222.185C371.152 222.596 370.243 224.131 369.384 223.261Z" fill="#B56233"/>
<path fill-rule="evenodd" clip-rule="evenodd" d="M266.756 304.975C266.428 305.522 267.045 306.164 265.802 306.184C265.258 305.836 266.021 304.824 266.756 304.975Z" fill="#B56233"/>
<path fill-rule="evenodd" clip-rule="evenodd" d="M262.785 307.802C262.272 307.701 262.419 308.964 261.659 308.354C260.785 307.376 262.246 307.571 262.785 307.802Z" fill="#B56233"/>
<path fill-rule="evenodd" clip-rule="evenodd" d="M270.43 303.231C270.119 303.918 269.55 304.109 268.857 304.063C269.196 303.431 269.82 303.345 270.43 303.231Z" fill="#B56233"/>
<path fill-rule="evenodd" clip-rule="evenodd" d="M314.369 321.726C314.788 320.546 314.829 322.833 314.471 323.275C314.448 322.77 314.315 322.198 314.369 321.726Z" fill="#B56233"/>
<path fill-rule="evenodd" clip-rule="evenodd" d="M331.437 264.772C331.221 264.964 331.298 265.383 330.912 265.325C330.497 264.922 331.352 263.789 331.437 264.772Z" fill="#FFBF5F"/>
<path fill-rule="evenodd" clip-rule="evenodd" d="M313.611 265.466C314.213 265.427 314.953 264.871 315.407 265.419C314.796 265.627 314.221 265.764 313.611 265.466Z" fill="#B56233"/>
<path fill-rule="evenodd" clip-rule="evenodd" d="M368.959 223.618C369.754 224.213 368.472 224.545 368.065 225.012C367.731 224.147 368.984 224.257 368.959 223.618Z" fill="#B56233"/>
<path fill-rule="evenodd" clip-rule="evenodd" d="M346.729 264.383C347.061 263.402 347.855 264.055 348.42 263.898C347.856 264.06 347.292 264.221 346.729 264.383Z" fill="#103C29"/>
<path fill-rule="evenodd" clip-rule="evenodd" d="M300.194 321.509C300.815 321.348 301.389 320.753 302.086 321.3C301.273 321.287 300.989 321.73 300.194 321.509Z" fill="#B56233"/>
<path fill-rule="evenodd" clip-rule="evenodd" d="M380.329 226.485C379.985 226.416 379.87 226.09 379.684 225.828C379.981 225.91 380.744 226.008 380.329 226.485Z" fill="#B56233"/>
<path fill-rule="evenodd" clip-rule="evenodd" d="M372.002 222.187C371.957 221.722 372.162 221.545 372.614 221.651C372.41 221.83 372.206 222.008 372.002 222.187Z" fill="#B56233"/>
<path fill-rule="evenodd" clip-rule="evenodd" d="M293.719 239.512C293.511 239.715 293.33 239.637 293.159 239.459C293.345 239.477 293.532 239.494 293.719 239.512Z" fill="#103C29"/>
<path fill-rule="evenodd" clip-rule="evenodd" d="M369.366 223.825C369.059 223.629 369.179 223.444 369.383 223.262C369.377 223.45 369.372 223.637 369.366 223.825Z" fill="#B56233"/>
<path fill-rule="evenodd" clip-rule="evenodd" d="M310.02 192.949C309.994 192.946 309.969 192.942 309.957 192.916C309.978 192.927 309.999 192.938 310.02 192.949Z" fill="#FFBF5F"/>
<path fill-rule="evenodd" clip-rule="evenodd" d="M369.314 224.051C369.332 223.831 369.385 223.797 369.573 223.915C369.487 223.96 369.401 224.005 369.314 224.051Z" fill="#B56233"/>
<path fill-rule="evenodd" clip-rule="evenodd" d="M301.092 321.615C301.097 321.544 301.102 321.473 301.108 321.402C301.21 321.481 301.308 321.56 301.092 321.615Z" fill="#103C29"/>
<path fill-rule="evenodd" clip-rule="evenodd" d="M379.627 226.41C379.508 226.42 379.389 226.431 379.27 226.442C379.366 226.171 379.491 226.224 379.627 226.41Z" fill="#FFBF5F"/>
<path fill-rule="evenodd" clip-rule="evenodd" d="M330.551 257.104C330.513 257.174 330.614 257.149 330.661 257.168C330.625 257.147 330.588 257.126 330.551 257.104Z" fill="#FFBF5F"/>
<path fill-rule="evenodd" clip-rule="evenodd" d="M379.28 226.441C379.185 226.623 379.067 226.633 378.928 226.489C379.045 226.473 379.162 226.457 379.28 226.441Z" fill="#FFBF5F"/>
<path fill-rule="evenodd" clip-rule="evenodd" d="M323.564 278.51C325.001 275.074 325.234 271.05 327.027 267.844C326.289 270.193 324.999 280.951 323.564 278.51Z" fill="#FFBF5F"/>
<path fill-rule="evenodd" clip-rule="evenodd" d="M324.553 279.432C324.54 279.389 324.525 279.384 324.489 279.411C324.509 279.446 324.529 279.488 324.553 279.432ZM324.091 279.318C325.886 277.302 323.687 285.78 322.736 285.513C321.823 284.131 325.039 281.002 324.091 279.318Z" fill="#B56233"/>
<path fill-rule="evenodd" clip-rule="evenodd" d="M320.211 298.692C318.499 301.439 318.897 305.085 317.897 307.769C317.384 307.336 317.536 306.807 317.686 306.279C319.379 304.391 317.622 298.467 320.211 298.692Z" fill="#FFBF5F"/>
<path fill-rule="evenodd" clip-rule="evenodd" d="M272.855 317.238C275.153 316.954 277.33 319.183 279.753 319.374C279.387 319.89 274.705 317.629 272.855 317.238Z" fill="#B56233"/>
<path fill-rule="evenodd" clip-rule="evenodd" d="M307.994 317.773C308.08 316.462 310.608 316.993 308.651 316.451C311.892 314.904 309.959 318.119 307.994 317.773Z" fill="#B56233"/>
<path fill-rule="evenodd" clip-rule="evenodd" d="M260.852 309.874C262.452 310.352 263.983 310.857 261.534 311.082C260.907 311.434 260.303 310.983 259.721 310.73C259.954 310.081 260.702 311.414 261.324 310.568C261.073 310.377 260.157 309.852 260.852 309.874Z" fill="#B56233"/>
<path fill-rule="evenodd" clip-rule="evenodd" d="M321.998 289.928C321.282 290.668 321.706 287.527 322.235 287.31C322.28 288.177 322.057 289.058 321.998 289.928Z" fill="#FFBF5F"/>
<path fill-rule="evenodd" clip-rule="evenodd" d="M323.264 298.856C322.258 299.555 321.538 298.786 320.75 298.368C321.553 298.708 322.502 298.302 323.264 298.856Z" fill="#B56233"/>
<path fill-rule="evenodd" clip-rule="evenodd" d="M286.623 320.698C287.981 320.331 288.339 320.725 287.09 320.151C289.029 319.76 288.35 321.479 286.623 320.698Z" fill="#B56233"/>
<path fill-rule="evenodd" clip-rule="evenodd" d="M264.649 313.673C264.974 313.357 264.492 313.43 264.437 313.279C263.382 312.011 265.579 313.841 266.123 314.222C265.633 314.035 265.157 313.807 264.649 313.673Z" fill="#B56233"/>
<path fill-rule="evenodd" clip-rule="evenodd" d="M265.773 310.143C267.195 310.603 265.49 310.833 264.908 310.474C264.584 310.061 265.517 309.953 265.773 310.143Z" fill="#B56233"/>
<path fill-rule="evenodd" clip-rule="evenodd" d="M353.294 276.401C353.744 276.118 353.862 275.327 354.624 275.525C354.18 275.815 354.009 276.526 353.294 276.401Z" fill="#B56233"/>
<path fill-rule="evenodd" clip-rule="evenodd" d="M288.639 320.931C289.284 320.488 289.869 320.458 290.344 321.177C289.776 321.095 289.207 321.013 288.639 320.931Z" fill="#B56233"/>
<path fill-rule="evenodd" clip-rule="evenodd" d="M344.78 282.008C345.101 282.2 345.537 281.264 345.791 282.109C345.401 282.592 345.099 282.22 344.78 282.008Z" fill="#B56233"/>
<path fill-rule="evenodd" clip-rule="evenodd" d="M290.379 312.691C290.007 312.456 291.497 312.386 291.731 312.581C291.306 312.948 290.835 312.569 290.379 312.691Z" fill="#B56233"/>
<path fill-rule="evenodd" clip-rule="evenodd" d="M287.178 312.717C286.602 312.714 286.027 313.11 285.657 312.594C286.165 312.651 286.764 312.36 287.178 312.717Z" fill="#B56233"/>
<path fill-rule="evenodd" clip-rule="evenodd" d="M281.732 319.992C282.512 320.122 283.292 320.252 284.071 320.381C283.258 320.449 282.497 320.205 281.732 319.992Z" fill="#B56233"/>
<path fill-rule="evenodd" clip-rule="evenodd" d="M314.834 305.125C315.035 305.63 314.512 305.324 314.37 305.075C314.719 304.8 315.098 304.648 314.834 305.125Z" fill="#B56233"/>
<path fill-rule="evenodd" clip-rule="evenodd" d="M325.676 293.536C325.77 293.183 326.325 293.202 326.61 293.03C326.541 293.372 326.029 293.571 325.676 293.536Z" fill="#B56233"/>
<path fill-rule="evenodd" clip-rule="evenodd" d="M290.476 321.039C290.504 320.843 290.608 320.718 290.805 320.814C291.104 321.09 290.669 321.344 290.476 321.039Z" fill="#B56233"/>
<path fill-rule="evenodd" clip-rule="evenodd" d="M325.499 293.364C325.385 293.109 324.736 293.765 324.911 293.017C325.107 293.132 325.303 293.248 325.499 293.364Z" fill="#B56233"/>
<path fill-rule="evenodd" clip-rule="evenodd" d="M327.086 292.867C327.241 292.803 327.481 292.423 327.556 292.687C327.406 292.751 327.213 292.795 327.086 292.867Z" fill="#B56233"/>
<path fill-rule="evenodd" clip-rule="evenodd" d="M280.534 319.816C280.8 319.854 281.066 319.892 281.331 319.929C281.065 319.892 280.799 319.854 280.534 319.816Z" fill="#B56233"/>
<path fill-rule="evenodd" clip-rule="evenodd" d="M260.429 310.195C260.558 310.237 260.687 310.278 260.816 310.319C260.585 310.596 260.49 310.45 260.429 310.195Z" fill="#B56233"/>
<path fill-rule="evenodd" clip-rule="evenodd" d="M286.137 320.701C286.253 320.7 286.368 320.699 286.484 320.698C286.37 321.04 286.252 320.735 286.137 320.701Z" fill="#B56233"/>
<path fill-rule="evenodd" clip-rule="evenodd" d="M284.497 320.522C284.631 320.54 284.765 320.559 284.899 320.577C284.765 320.559 284.631 320.54 284.497 320.522Z" fill="#B56233"/>
<path fill-rule="evenodd" clip-rule="evenodd" d="M324.908 293.01C324.85 292.922 324.791 292.835 324.733 292.747C325.057 292.655 324.901 292.888 324.908 293.01Z" fill="#B56233"/>
<path fill-rule="evenodd" clip-rule="evenodd" d="M327.082 292.86C327.013 292.912 326.943 293.055 326.901 292.925C326.962 292.898 327.044 292.896 327.082 292.86Z" fill="#B56233"/>
<path fill-rule="evenodd" clip-rule="evenodd" d="M288.493 320.959C288.522 320.926 288.553 320.925 288.584 320.955C288.529 321.088 288.517 321.126 288.493 320.959Z" fill="#B56233"/>
<path fill-rule="evenodd" clip-rule="evenodd" d="M268.584 304.36C268.594 304.347 268.604 304.334 268.615 304.32C268.605 304.334 268.591 304.345 268.584 304.36Z" fill="#B56233"/>
<path fill-rule="evenodd" clip-rule="evenodd" d="M269.036 304.544L269.033 304.511C269.066 304.521 269.062 304.526 269.036 304.544Z" fill="#B56233"/>
<path fill-rule="evenodd" clip-rule="evenodd" d="M310.41 317.07L310.435 317.052C310.434 317.054 310.401 317.066 310.41 317.07Z" fill="#B56233"/>
<path fill-rule="evenodd" clip-rule="evenodd" d="M290.354 321.172C290.385 321.14 290.415 321.108 290.445 321.076C290.415 321.108 290.385 321.14 290.354 321.172Z" fill="#B56233"/>
<path fill-rule="evenodd" clip-rule="evenodd" d="M334.959 241.236C335.081 242.304 332.338 253.236 332.547 249.259C331.192 250.808 330.957 248.259 331.324 247.27C331.322 243.65 332.607 244.051 333.682 241.508C334.939 238.641 334.717 235.414 335.706 232.414C335.08 238.229 337.33 232.376 339.415 230.588C339.089 234.579 334.445 237.054 334.959 241.236Z" fill="#FFBF5F"/>
<path fill-rule="evenodd" clip-rule="evenodd" d="M341.569 230.74C339.393 233.384 337.987 236.519 336.093 239.351C337.386 237.936 339.844 229.184 341.569 230.74Z" fill="#FFBF5F"/>
<path fill-rule="evenodd" clip-rule="evenodd" d="M349.533 213.733C349.158 214.372 348.552 214.909 348.094 215.51C348.592 214.995 348.935 213.984 349.533 213.733Z" fill="#B56233"/>
<path fill-rule="evenodd" clip-rule="evenodd" d="M376.303 215.798C375.841 216.049 375.105 216.339 375.218 215.627C375.46 215.224 375.966 215.605 376.303 215.798Z" fill="#B56233"/>
<path fill-rule="evenodd" clip-rule="evenodd" d="M371.234 220.486C370.843 220.787 370.79 221.271 370.306 220.656C370.512 220.549 371.895 219.93 371.234 220.486Z" fill="#B56233"/>
<path fill-rule="evenodd" clip-rule="evenodd" d="M374.429 218.244C374.12 218.664 373.293 218.722 373.015 218.374C373.441 218.175 373.994 218.314 374.429 218.244Z" fill="#B56233"/>
<path fill-rule="evenodd" clip-rule="evenodd" d="M383.685 205.004C383.472 205.598 383.015 205.117 382.702 204.911C383.092 204.854 383.664 204.388 383.685 205.004Z" fill="#B56233"/>
<path fill-rule="evenodd" clip-rule="evenodd" d="M384.809 202.746C384.822 202.814 384.861 202.896 384.84 202.917C383.959 204.174 383.331 203.092 384.809 202.746Z" fill="#B56233"/>
<path fill-rule="evenodd" clip-rule="evenodd" d="M356.01 207.074C356.444 206.715 357.026 206.469 357.51 206.15C357.295 206.429 356.301 207.16 356.01 207.074Z" fill="#B56233"/>
<path fill-rule="evenodd" clip-rule="evenodd" d="M382.143 200.197C382.121 199.826 383.1 199.943 383.451 200.125C383.026 200.352 382.584 200.261 382.143 200.197Z" fill="#B56233"/>
<path fill-rule="evenodd" clip-rule="evenodd" d="M356.64 226.281C356.509 226.142 356.4 226.026 356.291 225.91C356.975 225.672 357.529 225.861 356.64 226.281Z" fill="#B56233"/>
<path fill-rule="evenodd" clip-rule="evenodd" d="M383.209 205.643C382.81 205.773 382.573 205.908 382.312 205.532C382.661 205.519 383.001 205.203 383.209 205.643Z" fill="#B56233"/>
<path fill-rule="evenodd" clip-rule="evenodd" d="M373.354 216.574C373.249 216.363 373.457 216.32 373.607 216.265C373.852 216.452 373.576 216.488 373.354 216.574Z" fill="#B56233"/>
<path fill-rule="evenodd" clip-rule="evenodd" d="M376.582 217.295C376.523 217.187 376.464 217.079 376.405 216.971C376.631 217.003 376.96 217.265 376.582 217.295Z" fill="#B56233"/>
<path fill-rule="evenodd" clip-rule="evenodd" d="M376.355 216.304C376.543 216.546 376.199 216.574 376.089 216.383C376.166 216.36 376.243 216.337 376.355 216.304Z" fill="#B56233"/>
<path fill-rule="evenodd" clip-rule="evenodd" d="M372.217 220.847C371.919 220.817 371.909 220.816 371.712 220.699C371.941 220.602 371.955 220.691 372.217 220.847Z" fill="#B56233"/>
<path fill-rule="evenodd" clip-rule="evenodd" d="M374.502 217.374C374.35 217.406 374.31 217.42 374.288 217.273C374.402 217.215 374.415 217.278 374.502 217.374Z" fill="#B56233"/>
<path fill-rule="evenodd" clip-rule="evenodd" d="M356.01 226.094C355.8 226.126 355.79 225.969 356.001 225.981C356.004 226.014 356.006 226.046 356.01 226.094Z" fill="#B56233"/>
<path fill-rule="evenodd" clip-rule="evenodd" d="M371.312 221.347C371.2 221.421 371.113 221.54 371.071 221.348C371.156 221.344 371.24 221.361 371.312 221.347Z" fill="#B56233"/>
<path fill-rule="evenodd" clip-rule="evenodd" d="M371.315 221.353C371.379 221.319 371.454 221.173 371.494 221.27C371.434 221.302 371.36 221.315 371.315 221.353Z" fill="#B56233"/>
<path fill-rule="evenodd" clip-rule="evenodd" d="M369.824 222.815C370.004 222.873 369.785 222.935 369.725 222.833C369.758 222.826 369.79 222.82 369.824 222.815Z" fill="#B56233"/>
<path fill-rule="evenodd" clip-rule="evenodd" d="M370.716 221.331C370.688 221.345 370.659 221.357 370.629 221.369C370.584 221.305 370.729 221.248 370.716 221.331Z" fill="#B56233"/>
<path fill-rule="evenodd" clip-rule="evenodd" d="M352.554 231.492L352.577 231.484L352.554 231.492Z" fill="#FFBF5F"/>
<path fill-rule="evenodd" clip-rule="evenodd" d="M368.965 223.615C368.955 223.607 368.946 223.599 368.936 223.591C368.946 223.598 368.953 223.622 368.965 223.615Z" fill="#B56233"/>
<path fill-rule="evenodd" clip-rule="evenodd" d="M276.236 249.878C275.934 249.334 274.638 249.737 274.889 250.065C275.336 250.008 275.782 249.943 276.236 249.878ZM280.467 249.988C278.368 249.712 275.354 250.973 273.794 249.635C274.39 249.478 278.299 248.96 276.351 249.716C277.668 249.959 279.305 249.521 280.467 249.988Z" fill="#B56233"/>
<path fill-rule="evenodd" clip-rule="evenodd" d="M291.28 250.222C291.044 251.319 291.973 250.55 292.247 250.83C291.186 251.666 288.956 249.854 291.28 250.222Z" fill="#B56233"/>
<path fill-rule="evenodd" clip-rule="evenodd" d="M311.37 256.537C311.324 256.388 310.455 255.963 310.916 255.772C311.048 256.49 312.003 255.598 312.065 256.353C312.082 256.559 311.782 256.649 311.37 256.537Z" fill="#B56233"/>
<path fill-rule="evenodd" clip-rule="evenodd" d="M282.947 252.873C282.636 252.539 281.932 252.093 282.711 252.135C282.842 252.321 283.193 252.663 282.947 252.873Z" fill="#B56233"/>
<path fill-rule="evenodd" clip-rule="evenodd" d="M273.573 249.902C273.375 249.867 273.176 249.832 272.978 249.797C273.207 249.656 273.401 249.72 273.573 249.902Z" fill="#B56233"/>
<path fill-rule="evenodd" clip-rule="evenodd" d="M292.351 240.034C292.381 240.095 292.517 240.165 292.428 240.204C292.399 240.146 292.385 240.081 292.351 240.034Z" fill="#B56233"/>
<path fill-rule="evenodd" clip-rule="evenodd" d="M273.814 249.636C273.752 249.685 273.691 249.735 273.629 249.785C273.589 249.608 273.674 249.588 273.814 249.636Z" fill="#B56233"/>
<path fill-rule="evenodd" clip-rule="evenodd" d="M272.988 249.796C272.892 249.801 272.797 249.807 272.701 249.812C272.796 249.807 272.892 249.801 272.988 249.796Z" fill="#B56233"/>
<path fill-rule="evenodd" clip-rule="evenodd" d="M338.79 259.991C340.71 258.723 342.561 257.336 344.52 256.133C346.772 255.324 348.428 253.108 350.214 251.733C354.937 252.084 361.098 249.904 366.485 250.899C360.217 252.805 352.155 251.128 346.922 255.164C335.491 262.351 348.697 257.329 354.788 258.757C352.278 259.416 349.593 259.529 346.931 259.762C344.905 259.303 335.589 262.822 338.79 259.991Z" fill="#103C29"/>
<path fill-rule="evenodd" clip-rule="evenodd" d="M336.238 261.968L335.963 262.125C335.96 261.906 336.057 261.863 336.238 261.968Z" fill="#103C29"/>
<path fill-rule="evenodd" clip-rule="evenodd" d="M337.535 261.245C337.459 261.273 337.382 261.301 337.305 261.329C337.382 261.301 337.459 261.273 337.535 261.245Z" fill="#103C29"/>
<path fill-rule="evenodd" clip-rule="evenodd" d="M337.299 261.331C337.252 261.356 337.205 261.381 337.157 261.406C337.204 261.381 337.252 261.356 337.299 261.331Z" fill="#103C29"/>
<path fill-rule="evenodd" clip-rule="evenodd" d="M336.405 261.994C336.348 261.986 336.292 261.978 336.235 261.97C336.292 261.978 336.348 261.986 336.405 261.994Z" fill="#103C29"/>
<path fill-rule="evenodd" clip-rule="evenodd" d="M352.555 249.923C353.943 248.742 360.831 241.468 358.991 244.598C363.36 244.032 368.942 242.451 373.284 243.472C362.515 248.179 359.622 243.004 352.297 250.093C352.383 250.037 352.469 249.98 352.555 249.923Z" fill="#103C29"/>
<path fill-rule="evenodd" clip-rule="evenodd" d="M359.871 243.547C360.383 240.679 366.488 236.858 369.638 234.826C366.797 238.249 362.722 240.708 359.871 243.547Z" fill="#FFBF5F"/>
<path fill-rule="evenodd" clip-rule="evenodd" d="M352.013 250.351C351.557 251.011 351.097 251.777 350.206 251.739C350.607 251.012 351.235 250.583 352.013 250.351Z" fill="#FFBF5F"/>
<path fill-rule="evenodd" clip-rule="evenodd" d="M376.337 231.102C375.901 231.357 375.464 231.612 375.027 231.867C375.12 231.346 375.918 231.104 376.337 231.102Z" fill="#103C29"/>
<path fill-rule="evenodd" clip-rule="evenodd" d="M360.577 243.035C360.788 242.568 361.152 242.294 361.643 242.178C361.404 242.61 361.032 242.875 360.577 243.035Z" fill="#103C29"/>
<path fill-rule="evenodd" clip-rule="evenodd" d="M375.192 231.464C375.1 231.711 375.042 231.941 374.743 231.975C374.426 231.391 374.96 231.562 375.192 231.464Z" fill="#FFBF5F"/>
<path fill-rule="evenodd" clip-rule="evenodd" d="M361.841 241.971C361.815 241.751 361.901 241.656 362.125 241.716C362.099 241.878 362.053 242.018 361.841 241.971Z" fill="#103C29"/>
<path fill-rule="evenodd" clip-rule="evenodd" d="M360.007 243.453C359.991 243.238 360.099 243.165 360.298 243.198C360.291 243.386 360.2 243.479 360.007 243.453Z" fill="#103C29"/>
<path fill-rule="evenodd" clip-rule="evenodd" d="M361.636 242.18C361.701 242.112 361.766 242.044 361.831 241.976C361.766 242.044 361.701 242.112 361.636 242.18Z" fill="#103C29"/>
<path fill-rule="evenodd" clip-rule="evenodd" d="M374.782 231.963C374.864 231.933 374.946 231.903 375.028 231.873C374.946 231.903 374.864 231.933 374.782 231.963Z" fill="#103C29"/>
<path fill-rule="evenodd" clip-rule="evenodd" d="M360.441 243.109C360.482 243.086 360.523 243.064 360.564 243.041C360.523 243.064 360.482 243.086 360.441 243.109Z" fill="#103C29"/>
<path fill-rule="evenodd" clip-rule="evenodd" d="M360.309 243.19C360.348 243.166 360.387 243.142 360.427 243.119C360.387 243.142 360.348 243.166 360.309 243.19Z" fill="#103C29"/>
<path fill-rule="evenodd" clip-rule="evenodd" d="M359.875 243.535C359.917 243.508 359.96 243.481 360.002 243.454C359.96 243.481 359.917 243.508 359.875 243.535Z" fill="#103C29"/>
<path fill-rule="evenodd" clip-rule="evenodd" d="M320.337 222.75C321.49 225.064 322.098 227.581 323.399 229.841C319.778 224.247 308.528 219.985 306.5 214.662C311.462 218.465 317.27 222.459 321.674 227.277C321.616 225.78 320.064 224.398 320.337 222.75Z" fill="#103C29"/>
<path fill-rule="evenodd" clip-rule="evenodd" d="M318.9 219.662C319.119 220.281 318.629 220.524 318.213 219.849C314.862 215.939 311.722 211.883 307.908 208.354C306.149 207.873 305.932 207.333 305.855 205.746C310.358 208.47 315.373 215.325 318.9 219.662Z" fill="#103C29"/>
<path fill-rule="evenodd" clip-rule="evenodd" d="M326.466 236.577C326.969 237.053 327.475 237.529 327.084 238.326C326.744 237.791 326.517 237.216 326.466 236.577Z" fill="#103C29"/>
<path fill-rule="evenodd" clip-rule="evenodd" d="M316.442 213.646C316.723 214.175 317.004 214.704 317.286 215.234C316.873 214.775 316.453 214.32 316.442 213.646Z" fill="#103C29"/>
<path fill-rule="evenodd" clip-rule="evenodd" d="M316.035 212.979C316.115 213.15 316.195 213.32 316.275 213.49C316.195 213.32 316.115 213.15 316.035 212.979Z" fill="#103C29"/>
<path fill-rule="evenodd" clip-rule="evenodd" d="M327.073 238.309C327.133 238.442 327.194 238.576 327.255 238.71C327.194 238.576 327.133 238.442 327.073 238.309Z" fill="#103C29"/>
<path fill-rule="evenodd" clip-rule="evenodd" d="M320.18 222.43C320.232 222.536 320.284 222.643 320.336 222.749C320.284 222.643 320.232 222.536 320.18 222.43Z" fill="#103C29"/>
<path fill-rule="evenodd" clip-rule="evenodd" d="M315.822 212.476C315.865 212.603 315.909 212.73 315.952 212.857C315.909 212.73 315.865 212.603 315.822 212.476Z" fill="#103C29"/>
<path fill-rule="evenodd" clip-rule="evenodd" d="M316.269 213.457L316.442 213.647L316.269 213.457Z" fill="#103C29"/>
<path fill-rule="evenodd" clip-rule="evenodd" d="M315.947 212.853C315.977 212.898 316.008 212.944 316.038 212.989C316.008 212.944 315.977 212.898 315.947 212.853Z" fill="#103C29"/>
<path fill-rule="evenodd" clip-rule="evenodd" d="M306.247 280.58C307.13 279.868 311.187 286.322 312.535 288.394C310.482 285.957 308.607 283.43 306.569 281.101C306.663 280.903 306.454 280.611 306.247 280.58Z" fill="#103C29"/>
<path fill-rule="evenodd" clip-rule="evenodd" d="M289.615 256.964C289.429 256.994 289.414 256.958 289.5 256.795C289.538 256.851 289.576 256.908 289.615 256.964Z" fill="#103C29"/>
<path fill-rule="evenodd" clip-rule="evenodd" d="M329.686 308.273C332.386 306.277 334.758 303.791 338.024 302.643C336.909 304.023 334.983 304.207 333.794 305.439C339.165 305.802 345.038 304.004 350.354 305.494C349.67 306.055 347.019 305.008 347.071 306.128C347.884 306.329 348.641 306.394 349.482 306.18C343.116 307.224 336.119 306.462 329.686 308.273Z" fill="#103C29"/>
<path fill-rule="evenodd" clip-rule="evenodd" d="M320.712 314.015C321.45 312.82 343.225 310.307 338.905 311.738C339.724 312.376 338.322 311.597 338.002 311.776C338.016 312.438 339.032 312.217 339.477 312.513C333.464 311.695 325.933 315.573 320.712 314.015Z" fill="#103C29"/>
<path fill-rule="evenodd" clip-rule="evenodd" d="M351.115 306.686C350.687 306.687 350.535 306.876 350.348 306.62C350.693 306.542 350.7 306.485 351.115 306.686Z" fill="#103C29"/>
<path fill-rule="evenodd" clip-rule="evenodd" d="M350.781 306.18C350.534 306.02 350.906 306.086 351.005 306.194C350.938 306.189 350.871 306.185 350.781 306.18Z" fill="#103C29"/>
<path fill-rule="evenodd" clip-rule="evenodd" d="M338.025 302.643C338.07 302.616 338.115 302.588 338.159 302.561C338.115 302.588 338.07 302.616 338.025 302.643Z" fill="#103C29"/>
<path fill-rule="evenodd" clip-rule="evenodd" d="M363.022 293.038C363.041 293.027 363.06 293.016 363.079 293.005C363.061 293.013 363.036 293.047 363.022 293.038Z" fill="#103C29"/>
<path fill-rule="evenodd" clip-rule="evenodd" d="M294.682 260.52C294.608 260.418 294.501 260.543 294.628 260.594C294.646 260.57 294.664 260.547 294.682 260.52ZM297.518 267.26C296.249 266.168 290.71 258.987 293.74 261.697C293.777 260.413 294.197 261.22 294.515 261.932C294.62 261.358 294.01 260.448 294.417 260.069C296.124 260.14 295.545 265.273 297.518 267.26Z" fill="#103C29"/>
<path fill-rule="evenodd" clip-rule="evenodd" d="M303.617 260.663C302.626 259.892 301.457 259.259 300.559 258.411C301.78 258.657 303.005 259.779 303.617 260.663Z" fill="#103C29"/>
<path fill-rule="evenodd" clip-rule="evenodd" d="M299.258 268.903C299.068 269.23 299.426 269.948 299.433 270.392C298.697 269.128 297.158 266.813 299.258 268.903Z" fill="#103C29"/>
<path fill-rule="evenodd" clip-rule="evenodd" d="M290.651 258.344C290.271 257.901 289.639 257.649 289.603 256.946C290.04 257.346 290.633 257.627 290.651 258.344Z" fill="#103C29"/>
<path fill-rule="evenodd" clip-rule="evenodd" d="M303.609 260.669C303.725 260.741 303.923 260.762 303.719 260.868C303.677 260.802 303.659 260.712 303.609 260.669Z" fill="#103C29"/>
<path fill-rule="evenodd" clip-rule="evenodd" d="M293.636 260.63C293.722 260.559 293.733 260.637 293.756 260.709C293.677 260.733 293.646 260.713 293.636 260.63Z" fill="#103C29"/>
<path fill-rule="evenodd" clip-rule="evenodd" d="M341.076 214.277C342.416 209.689 341.095 204.283 344.575 201.061C337.722 218.759 350.404 196.35 352.105 198.072C351.105 199.218 352.761 198.839 352.086 199.717C348.857 203.371 345.232 208.3 341.076 214.277Z" fill="#103C29"/>
<path fill-rule="evenodd" clip-rule="evenodd" d="M343.537 196.752C344.218 190.115 345.942 184.253 348.321 177.838C350.154 182.576 344.525 190.93 343.537 196.752Z" fill="#103C29"/>
<path fill-rule="evenodd" clip-rule="evenodd" d="M349.931 187.503C350.098 186.6 350.875 185.906 351.527 185.444C350.327 189.264 347.545 193.545 345.876 198.114C345.111 195.453 347.719 186.58 349.954 187.539L349.931 187.503Z" fill="#103C29"/>
<path fill-rule="evenodd" clip-rule="evenodd" d="M298.807 261.326C298.899 261.77 299.001 261.863 298.731 262.139C298.628 261.789 298.591 261.733 298.807 261.326Z" fill="#B56233"/>
<path fill-rule="evenodd" clip-rule="evenodd" d="M298.806 261.131C298.713 261.176 298.658 261.202 298.603 261.228C298.317 260.695 298.539 260.52 298.806 261.131Z" fill="#B56233"/>
<path fill-rule="evenodd" clip-rule="evenodd" d="M298.597 259.947C298.64 260.143 298.667 260.21 298.491 260.288C298.48 260.13 298.407 260.042 298.597 259.947Z" fill="#B56233"/>
<path fill-rule="evenodd" clip-rule="evenodd" d="M334.623 238.1C333.714 239.458 333.936 237.016 333.953 236.285C334.767 236.507 334.618 237.449 334.623 238.1Z" fill="#B56233"/>
<path fill-rule="evenodd" clip-rule="evenodd" d="M330.258 244.019C331.041 244.295 330.455 246.927 330.063 246.827C330.33 246.51 329.388 245.867 330.374 245.692C330.559 245.485 329.943 244.212 329.873 245.412C329.72 245.093 329.418 244.464 330.088 244.572C330.334 244.602 329.887 244.12 330.258 244.019Z" fill="#FFBF5F"/>
<path fill-rule="evenodd" clip-rule="evenodd" d="M333.947 236.253C333.95 236.155 333.952 236.057 333.955 235.96C334.377 236.068 333.884 236.154 333.947 236.253Z" fill="#B56233"/>
<path fill-rule="evenodd" clip-rule="evenodd" d="M324.938 269.658C324.96 269.608 324.982 269.557 325.004 269.506C324.982 269.556 324.96 269.607 324.938 269.658Z" fill="#FFBF5F"/>
<path fill-rule="evenodd" clip-rule="evenodd" d="M376.289 231.038C373.841 232.012 376.875 229.912 377.751 229.426C378.477 229.635 376.603 230.626 376.289 231.038Z" fill="#FFBF5F"/>
<path fill-rule="evenodd" clip-rule="evenodd" d="M376.01 217.824C376.017 217.884 376.1 217.968 376.01 217.989C376.012 217.933 375.955 217.853 376.01 217.824Z" fill="#103C29"/>
<path fill-rule="evenodd" clip-rule="evenodd" d="M372.801 220.805C372.811 220.793 372.822 220.781 372.833 220.769C372.824 220.781 372.794 220.791 372.801 220.805Z" fill="#103C29"/>
<path fill-rule="evenodd" clip-rule="evenodd" d="M375.983 217.841C375.954 217.772 375.963 217.766 376.011 217.825C376.011 217.824 375.983 217.841 375.983 217.841Z" fill="#103C29"/>
<path fill-rule="evenodd" clip-rule="evenodd" d="M314.369 321.726C314.379 321.716 314.341 321.706 314.337 321.701L314.369 321.726Z" fill="#103C29"/>
<path fill-rule="evenodd" clip-rule="evenodd" d="M331.106 252.303C331.485 251.623 331.335 250.139 332.116 250.74C331.895 251.376 331.461 254.059 331.106 252.303Z" fill="#B56233"/>
<path fill-rule="evenodd" clip-rule="evenodd" d="M331.029 254.874C330.991 255.049 330.953 255.224 330.916 255.399C330.954 255.223 330.992 255.049 331.029 254.874Z" fill="#B56233"/>
<path fill-rule="evenodd" clip-rule="evenodd" d="M331.393 253.339C331.379 253.397 331.364 253.454 331.35 253.511C331.364 253.453 331.379 253.396 331.393 253.339Z" fill="#B56233"/>
<path fill-rule="evenodd" clip-rule="evenodd" d="M331.104 254.533C331.138 254.575 331.08 254.571 331.064 254.539L331.104 254.533Z" fill="#B56233"/>
<path fill-rule="evenodd" clip-rule="evenodd" d="M330.814 255.831C330.82 255.853 330.794 255.833 330.785 255.833L330.814 255.831Z" fill="#B56233"/>
<path fill-rule="evenodd" clip-rule="evenodd" d="M290.716 239.731C290.787 239.712 290.798 239.727 290.745 239.78C290.735 239.764 290.725 239.748 290.716 239.731Z" fill="#103C29"/>
<path fill-rule="evenodd" clip-rule="evenodd" d="M268.557 304.462L268.526 304.486C268.528 304.483 268.571 304.469 268.557 304.462Z" fill="#103C29"/>
<path fill-rule="evenodd" clip-rule="evenodd" d="M324.883 288.276C326.662 285.248 329.053 282.397 331.747 280.166C329.447 282.834 327.145 285.593 324.883 288.276Z" fill="#103C29"/>
<path fill-rule="evenodd" clip-rule="evenodd" d="M324.293 278.927C324.255 279.02 324.216 279.113 324.178 279.206C324.216 279.113 324.255 279.02 324.293 278.927Z" fill="#103C29"/>
<path fill-rule="evenodd" clip-rule="evenodd" d="M323.133 283.397C323.533 282.515 323.569 279.498 324.454 279.767C323.727 280.88 323.849 282.292 323.133 283.397Z" fill="#103C29"/>
<path fill-rule="evenodd" clip-rule="evenodd" d="M324.554 279.433C324.529 279.489 324.51 279.446 324.489 279.412C324.526 279.384 324.541 279.389 324.554 279.433Z" fill="#103C29"/>
<path fill-rule="evenodd" clip-rule="evenodd" d="M323.424 282.065C323.338 282.458 323.252 282.851 323.167 283.243C323.252 282.851 323.338 282.458 323.424 282.065Z" fill="#B56233"/>
<path fill-rule="evenodd" clip-rule="evenodd" d="M314.368 205.703C313.88 205.365 314.08 204.723 313.764 204.307C314.097 203.936 314.573 205.398 314.368 205.703Z" fill="#FFBF5F"/>
<path fill-rule="evenodd" clip-rule="evenodd" d="M314.424 205.673C314.437 205.712 314.45 205.751 314.463 205.789C314.418 205.743 314.328 205.704 314.424 205.673Z" fill="#FFBF5F"/>
<path fill-rule="evenodd" clip-rule="evenodd" d="M332.116 250.741C331.242 250.587 331.949 249.563 332.548 249.26C332.415 249.757 332.345 250.276 332.116 250.741Z" fill="#103C29"/>
<path fill-rule="evenodd" clip-rule="evenodd" d="M350.226 233.443C350.183 233.642 350.051 233.754 349.905 233.586C349.732 233.351 350.183 233.202 350.226 233.443Z" fill="#FFBF5F"/>
<path fill-rule="evenodd" clip-rule="evenodd" d="M350.287 233.41C350.197 233.492 350.164 233.331 350.101 233.274C350.243 233.224 350.283 233.265 350.287 233.41Z" fill="#FFBF5F"/>
<path fill-rule="evenodd" clip-rule="evenodd" d="M370.312 210.42C370.233 210.445 370.154 210.471 370.075 210.496C370.172 210.39 370.231 210.203 370.312 210.42Z" fill="#103C29"/>
<path fill-rule="evenodd" clip-rule="evenodd" d="M381.669 200.523C381.547 200.496 381.425 200.468 381.302 200.44C381.458 200.417 381.619 200.319 381.669 200.523Z" fill="#103C29"/>
<path fill-rule="evenodd" clip-rule="evenodd" d="M273.666 249.917C273.678 249.966 273.704 250.007 273.64 250.024C273.629 249.978 273.603 249.935 273.666 249.917Z" fill="#B56233"/>
<path fill-rule="evenodd" clip-rule="evenodd" d="M367.031 235.245C367.841 233.856 370.385 232.772 371.938 231.874C370.052 232.705 369.231 235.419 367.031 235.245Z" fill="#FFBF5F"/>
<path fill-rule="evenodd" clip-rule="evenodd" d="M348.567 252.983C347.622 254.368 346.068 255.521 344.513 256.138C345.632 254.785 347.219 254.039 348.567 252.983Z" fill="#FFBF5F"/>
<path fill-rule="evenodd" clip-rule="evenodd" d="M374.543 229.401C374.414 229.234 374.361 229.165 374.308 229.096C375.493 228.239 375.685 228.558 374.543 229.401Z" fill="#FFBF5F"/>
<path fill-rule="evenodd" clip-rule="evenodd" d="M350.214 251.733C350.131 251.982 350.03 252.21 349.708 252.194C349.864 252.026 349.806 251.621 350.214 251.733Z" fill="#FFBF5F"/>
<path fill-rule="evenodd" clip-rule="evenodd" d="M352.308 250.087C352.207 250.177 352.105 250.266 352.004 250.356C352.105 250.266 352.207 250.177 352.308 250.087Z" fill="#FFBF5F"/>
<path fill-rule="evenodd" clip-rule="evenodd" d="M352.555 249.923C352.469 249.98 352.383 250.037 352.297 250.093C352.383 250.037 352.469 249.98 352.555 249.923Z" fill="#FFBF5F"/>
<path fill-rule="evenodd" clip-rule="evenodd" d="M344.521 256.133C344.414 256.189 344.307 256.245 344.2 256.301C344.307 256.245 344.414 256.189 344.521 256.133Z" fill="#FFBF5F"/>
<path fill-rule="evenodd" clip-rule="evenodd" d="M300.626 271.637C300.291 271.48 300.142 271.1 299.882 270.841C300.129 270.697 300.355 271.395 300.626 271.637Z" fill="#FFBF5F"/>
<path fill-rule="evenodd" clip-rule="evenodd" d="M347.129 306.099C347.11 306.109 347.09 306.119 347.071 306.129C347.09 306.121 347.116 306.078 347.129 306.099Z" fill="#B56233"/>
<path fill-rule="evenodd" clip-rule="evenodd" d="M294.683 260.522C294.665 260.547 294.647 260.571 294.629 260.595C294.5 260.543 294.609 260.417 294.683 260.522Z" fill="#B56233"/>
<path fill-rule="evenodd" clip-rule="evenodd" d="M349.931 187.503L349.954 187.54C349.952 187.539 349.937 187.492 349.931 187.503Z" fill="#B56233"/>
<path fill-rule="evenodd" clip-rule="evenodd" d="M330.015 244.815C330.015 244.815 330.008 244.816 330.008 244.815C330.008 244.815 330.015 244.815 330.015 244.815Z" fill="#103C29"/>
</g>
<path d="M156.966 148.692C146.697 149.298 136.458 150.486 126.224 151.529L126.159 151.189C122.425 151.942 118.68 152.65 114.959 153.466C110.114 154.641 110.732 165.748 115.208 166.485C124.96 168.572 134.762 170.264 144.774 169.22C157.107 169.24 169.407 168.341 181.743 168.438C192.035 168.322 202.283 169.856 212.571 169.207C222.002 169.877 231.569 168.325 241.064 169.057C256.426 169.969 271.902 171.077 287.134 169.063C286.938 169.342 286.796 169.793 286.536 169.874C285.536 174.094 282.4 179.412 280.274 179.807C274.522 180.876 268.765 181.966 262.964 182.701C256.619 183.355 250.154 183.07 243.773 183.398C231.584 183.975 219.389 184.519 207.214 185.279C201.953 185.174 196.674 184.835 191.4 184.943C178.424 185.153 165.56 183.719 152.624 183.058C139.073 181.444 125.543 182.688 111.988 183.533C110.602 183.616 109.216 184.001 107.877 184.4C107.498 184.514 107.288 185.175 107 185.584C121.119 186.599 135.233 187.215 149.353 188.174C164.45 188.987 179.517 190.388 194.666 189.899C211.329 189.887 227.958 188.523 244.585 187.645C256.378 187.858 268.111 186.823 279.712 184.738C283.747 183.699 291.808 182.615 293.638 178.59C294.522 176.658 293.337 167.146 291.387 166.221C286.487 163.407 281.046 165.384 275.77 165.578C270.42 165.617 265.038 166.209 259.71 166.326C240.06 164.036 220.371 165.51 200.664 165.358C181.338 164.501 162.032 164.242 142.711 165.403C134.397 165.262 125.998 166.431 117.843 164.276C116.834 164.048 115.9 158.662 115.369 157.63C115.223 157.345 116.543 156.056 117.397 155.629C118.118 155.269 119.144 155.541 120.025 155.442C135.515 153.332 151.236 153.955 166.832 153.209C188.208 154.217 209.658 155.357 231.048 153.969C250.163 154.083 269.575 155.336 288.302 150.672C289.997 150.274 291.664 146.827 291.425 144.8C290.687 141.977 285.882 140.857 283.269 140.069C275.256 137.949 267.002 138.475 258.816 138.237C251.513 137.733 244.242 136.791 236.942 136.223C229.025 135.554 221.08 136.082 213.159 136.385C196.343 135.995 179.459 136.683 162.718 134.737C154.784 134.436 146.832 134.715 138.893 134.798C133.019 134.429 116.602 133.57 113.485 129.036C122.468 124.595 131.036 124.747 140.732 124.325C151.537 123.979 162.362 124.557 173.177 124.498L173.186 124.498C205.781 124.706 238.515 124.915 271.004 122.114C277.103 121.578 283.409 120.77 288.874 117.939C296.889 110.707 279.453 107.755 274.362 107.99C263.814 108.132 253.307 107.103 242.822 106.128C224.909 105.583 207.001 106.26 189.094 106.746C174.313 107.023 159.528 106.03 144.751 106.465C138.417 106.793 132.106 107.556 125.756 107.232C121.885 107.792 119.757 102.298 118.648 98.3046C118.535 97.8643 119.931 96.5806 120.758 96.4571C124.963 95.8286 127.371 92.8128 131.614 92.598C143.5 91.7934 155.235 94.1746 167.076 94.7489C177.237 95.0674 187.359 93.9488 197.51 93.7271C216.848 92.6754 236.198 93.1662 255.551 93.7387C267.753 94.2755 280.251 95.0566 291.932 90.8422C293.073 90.4953 294.308 89.6118 294.901 88.6247C296.189 80.578 284.56 78.8281 278.569 78.4045C275.279 77.6381 271.881 77.6812 268.561 77.2624C260.486 75.3524 252.328 73.9176 244.047 73.2081C230.592 72.6368 217.239 70.6553 203.768 70.323C180.192 69.8477 156.536 69.8031 133.074 72.5354C127.738 73.1264 122.477 72.8715 117.327 71.2862C117.037 71.2193 116.787 70.7596 116.649 70.429C116.611 70.3404 117.934 65.0856 118.193 64.9812C121.658 63.5382 124.223 60.4164 128 60.0135C130.732 59.5697 133.48 59.552 136.215 59.9228C142.758 59.9021 149.303 59.8244 155.845 59.824C158.234 59.7636 160.623 59.5219 163.009 59.552C165.319 59.5811 167.638 60.0895 169.931 59.9707C179.275 59.1518 188.614 58.1671 198.008 58.0547C205.892 57.3363 213.77 57.6178 221.672 57.6586C236.329 57.9563 250.939 59.9615 265.606 59.5755C271.109 60.0214 276.37 58.8606 281.68 57.5926C285.28 56.8448 282.586 51.7417 280.854 51.7417L279.029 51.3338C277.307 51.8171 274.718 51.9762 272.935 52.1093C256.421 53.6613 239.839 51.9025 223.335 51.0153C205.766 50.9184 188.171 51.2881 170.632 52.1997C161.542 52.1361 152.46 52.6225 143.385 53.1621C137.226 53.8035 130.795 53.5354 124.738 54.5733C120.576 55.6486 117.411 58.8532 113.518 60.6708C112.007 61.3762 110.717 63.1798 110.074 64.7754C109.769 65.5335 110.08 72.1129 111.009 72.9483C113.899 75.8151 117.545 77.1173 121.585 77.4346C124.72 77.9632 127.857 78.7865 131.006 78.8461C141.725 78.5606 152.453 77.1381 163.175 76.6565C188.496 76.0584 213.864 76.4416 239.047 79.2797C250.324 79.6306 261.489 80.8373 272.498 83.2942C275.5 84.0789 284.683 83.7011 286.236 85.3608C278.922 87.9018 270.897 88.0371 263.195 87.8606C255.463 87.8083 247.751 87.2754 240.036 86.8792C218.11 86.4761 196.133 86.0135 174.245 87.5197C164.493 87.894 154.746 87.7331 145.052 86.6561C138.382 86.7691 103.694 92.7202 112.36 105.241C116.821 110.977 121.427 110.268 127.937 111.174C132 111.92 136.071 111.906 140.181 111.694C148.289 111.677 156.398 111.681 164.505 111.771C194.464 112.806 224.415 109.88 254.369 111.596C260.592 112.491 266.824 112.997 273.127 112.794C275.869 113.074 281.38 112.282 283.451 113.641C264.583 119.065 244.433 118.085 224.932 118.528C208.1 118.73 191.276 119.544 174.442 119.26C159.142 119.113 143.81 118.859 128.554 120.037C124.133 119.616 100.143 128.012 109.151 134.987C116.122 138.604 123.964 139.941 131.828 139.418C146.988 138.82 162.125 138.64 177.236 140.112C189.995 140.462 202.765 139.812 215.527 139.993C221.986 140.511 228.469 139.394 234.901 139.667C242.106 140.07 249.272 141.116 256.472 141.665C266.116 142.417 276.404 140.327 285.536 143.982C282.68 147.992 281.767 148.262 267.776 148.262C259.97 148.745 252.169 149.153 244.354 148.624C231.341 148.583 218.338 149.34 205.325 149.4C189.363 149.405 173.371 149.053 157.428 148.702L156.966 148.692Z" fill="#F0F2F2"/>
<circle cx="132" cy="270" r="22" fill="#FFBF5F"/>
<rect x="132" y="244" width="6.18002" height="6.18002" transform="rotate(45 132 244)" fill="#FFBF5F"/>
<rect x="132" y="287.26" width="6.18002" height="6.18002" transform="rotate(45 132 287.26)" fill="#FFBF5F"/>
<rect x="158" y="270" width="6.18002" height="6.18002" transform="rotate(135 158 270)" fill="#FFBF5F"/>
<rect x="114.74" y="270" width="6.18002" height="6.18002" transform="rotate(135 114.74 270)" fill="#FFBF5F"/>
<rect x="150.385" y="288.385" width="6.18002" height="6.18002" transform="rotate(-180 150.385 288.385)" fill="#FFBF5F"/>
<rect x="119.795" y="257.795" width="6.18002" height="6.18002" transform="rotate(-180 119.795 257.795)" fill="#FFBF5F"/>
<rect x="113.615" y="288.385" width="6.18002" height="6.18002" transform="rotate(-90 113.615 288.385)" fill="#FFBF5F"/>
<rect x="144.205" y="257.795" width="6.18002" height="6.18002" transform="rotate(-90 144.205 257.795)" fill="#FFBF5F"/>
<rect x="141.931" y="245.972" width="6.18002" height="6.18002" transform="rotate(67.4551 141.931 245.972)" fill="#FFBF5F"/>
<rect x="125.407" y="285.951" width="6.18002" height="6.18002" transform="rotate(67.4551 125.407 285.951)" fill="#FFBF5F"/>
<rect x="156.029" y="279.932" width="6.18002" height="6.18002" transform="rotate(157.455 156.029 279.932)" fill="#FFBF5F"/>
<rect x="116.048" y="263.408" width="6.18002" height="6.18002" transform="rotate(157.455 116.048 263.408)" fill="#FFBF5F"/>
<rect x="141.969" y="294.014" width="6.18002" height="6.18002" transform="rotate(-157.545 141.969 294.014)" fill="#FFBF5F"/>
<rect x="125.382" y="254.06" width="6.18002" height="6.18002" transform="rotate(-157.545 125.382 254.06)" fill="#FFBF5F"/>
<rect x="107.987" y="279.969" width="6.18002" height="6.18002" transform="rotate(-67.5449 107.987 279.969)" fill="#FFBF5F"/>
<rect x="147.941" y="263.383" width="6.18002" height="6.18002" transform="rotate(-67.5449 147.941 263.383)" fill="#FFBF5F"/>
<defs>
<clipPath id="clip0">
<rect width="88.0348" height="117.38" fill="white" transform="translate(99.2469 56.2471) rotate(45)"/>
</clipPath>
<clipPath id="clip1">
<rect width="109.453" height="161.74" fill="white" transform="translate(286.491 158.877) rotate(13.5771)"/>
</clipPath>
</defs>
</svg>
